<?xml version="1.0" standalone="no"?><!DOCTYPE svg PUBLIC "-//W3C//DTD SVG 1.1//EN" "http://www.w3.org/Graphics/SVG/1.1/DTD/svg11.dtd"><svg t="1715416455224" class="icon" viewBox="0 0 1024 1024" version="1.1" xmlns="http://www.w3.org/2000/svg" p-id="9183" xmlns:xlink="http://www.w3.org/1999/xlink" width="128" height="128"><path d="M747.776 731.904l-192.768-102.144 55.552-79.36c6.144-8.704 9.216-18.944 9.216-29.44v-153.088c0-19.2-2.816-37.632-8.448-55.04a185.8816 185.8816 0 0 0-130.56-124.16v-0.256c-1.024-0.256-2.304-0.256-3.328-0.768-5.12-1.28-10.24-2.048-15.36-2.816-2.048-0.256-4.096-0.768-6.144-1.024-7.168-0.768-14.08-1.28-21.504-1.28-95.744 0-174.592 72.96-184.064 166.144-0.512 6.144-1.024 12.544-1.024 18.944V520.448c0 11.008 3.584 22.016 10.24 30.72l57.6 76.032-151.04 79.104-57.344 30.976c-8.192 4.352-15.104 10.752-19.968 18.944-4.864 7.936-7.424 17.152-7.424 26.368v54.272c0 28.16 23.04 51.2 51.2 51.2h591.36c28.16 0 51.2-23.04 51.2-51.2v-59.648c0-9.216-2.56-18.432-7.424-26.368s-11.776-14.592-19.968-18.944z" fill="#4A8765" p-id="9184"></path><path d="M927.232 673.536l-137.216-72.704-55.552-29.44 55.552-79.36c6.144-8.704 9.216-18.944 9.216-29.44V309.76c0-73.216-42.752-136.192-104.448-166.4v-0.256c-1.024-0.512-2.048-0.768-3.072-1.28-4.352-2.048-8.704-3.84-13.056-5.376-1.792-0.768-3.584-1.28-5.376-2.048-4.608-1.536-9.472-2.816-14.336-4.096-1.536-0.512-3.328-0.768-4.864-1.28-5.376-1.28-11.008-2.048-16.64-2.816a9.216 9.216 0 0 1-2.816-0.512c-6.656-0.768-13.568-1.28-20.48-1.28a32 32 0 0 0 0 64c7.68 0 15.104 0.768 22.528 2.304 2.56 0.512 5.12 1.28 7.68 2.048 4.608 1.28 8.96 2.56 13.312 4.096 3.072 1.024 5.888 2.56 8.704 3.84 3.584 1.792 7.168 3.584 10.496 5.632l8.448 5.376c30.208 22.016 49.92 57.344 49.92 97.536v148.992l-61.696 88.064c-6.4 8.96-9.472 19.712-9.216 30.464 0 3.584 0.512 7.168 1.28 10.752a50.2784 50.2784 0 0 0 25.6 33.28l198.656 105.216v38.912h-27.392a32 32 0 0 0 0 64h40.192c28.16 0 51.2-23.04 51.2-51.2v-59.648c0.512-18.432-9.984-35.84-26.624-44.544z" fill="#4A8765" p-id="9185"></path></svg>