<?xml version="1.0" standalone="no"?><!DOCTYPE svg PUBLIC "-//W3C//DTD SVG 1.1//EN" "http://www.w3.org/Graphics/SVG/1.1/DTD/svg11.dtd"><svg t="1715417786560" class="icon" viewBox="0 0 1024 1024" version="1.1" xmlns="http://www.w3.org/2000/svg" p-id="13050" xmlns:xlink="http://www.w3.org/1999/xlink" width="128" height="128"><path d="M816 240c-35.296 0-64-28.704-64-64s28.704-64 64-64 64 28.704 64 64-28.704 64-64 64z m0-96c-17.648 0-32 14.352-32 32s14.352 32 32 32 32-14.352 32-32-14.352-32-32-32zM816 560c-35.296 0-64-28.704-64-64s28.704-64 64-64 64 28.704 64 64-28.704 64-64 64z m0-96c-17.648 0-32 14.352-32 32s14.352 32 32 32 32-14.352 32-32-14.352-32-32-32zM816 880c-35.296 0-64-28.704-64-64s28.704-64 64-64 64 28.704 64 64-28.704 64-64 64z m0-96c-17.648 0-32 14.352-32 32s14.352 32 32 32 32-14.352 32-32-14.352-32-32-32z" fill="#4A8765" p-id="13051"></path><path d="M912 352H112c-35.296 0-64-28.704-64-64V64c0-35.296 28.704-64 64-64h800c35.296 0 64 28.704 64 64v224c0 35.296-28.704 64-64 64zM112 32c-17.648 0-32 14.352-32 32v224c0 17.648 14.352 32 32 32h800c17.648 0 32-14.352 32-32V64c0-17.648-14.352-32-32-32H112z" fill="#4A8765" p-id="13052"></path><path d="M912 672H112c-35.296 0-64-28.704-64-64V384c0-35.296 28.704-64 64-64h800c35.296 0 64 28.704 64 64v224c0 35.296-28.704 64-64 64zM112 352c-17.648 0-32 14.352-32 32v224c0 17.648 14.352 32 32 32h800c17.648 0 32-14.352 32-32V384c0-17.648-14.352-32-32-32H112z" fill="#4A8765" p-id="13053"></path><path d="M912 992H112c-35.296 0-64-28.704-64-64V704c0-35.296 28.704-64 64-64h800c35.296 0 64 28.704 64 64v224c0 35.296-28.704 64-64 64zM112 672c-17.648 0-32 14.352-32 32v224c0 17.648 14.352 32 32 32h800c17.648 0 32-14.352 32-32V704c0-17.648-14.352-32-32-32H112z" fill="#4A8765" p-id="13054"></path><path d="M192 1024a16 16 0 0 1-16-16v-32a16 16 0 1 1 32 0v32a16 16 0 0 1-16 16zM832 1024a16 16 0 0 1-16-16v-32a16 16 0 1 1 32 0v32a16 16 0 0 1-16 16zM160 576a16 16 0 0 1-16-16v-128a16 16 0 0 1 32 0v128a16 16 0 0 1-16 16zM240 576a16 16 0 0 1-16-16v-128a16 16 0 0 1 32 0v128a16 16 0 0 1-16 16zM320 576a16 16 0 0 1-16-16v-128a16 16 0 0 1 32 0v128a16 16 0 0 1-16 16zM400 576a16 16 0 0 1-16-16v-128a16 16 0 0 1 32 0v128a16 16 0 0 1-16 16zM480 576a16 16 0 0 1-16-16v-128a16 16 0 0 1 32 0v128a16 16 0 0 1-16 16zM704 512c-4.16 0-8.32-1.76-11.36-4.64-2.88-3.04-4.64-7.04-4.64-11.36 0-4.16 1.76-8.32 4.64-11.36 5.92-5.92 16.64-5.92 22.72 0 2.88 3.04 4.64 7.2 4.64 11.36 0 4.16-1.76 8.32-4.64 11.36-3.04 2.88-7.2 4.64-11.36 4.64zM640 512c-4.16 0-8.32-1.76-11.36-4.64-2.88-3.04-4.64-7.04-4.64-11.36 0-4.16 1.76-8.32 4.64-11.36 5.92-5.92 16.8-5.92 22.72 0 2.88 3.04 4.64 7.2 4.64 11.36 0 4.16-1.76 8.32-4.64 11.36-3.04 2.88-7.04 4.64-11.36 4.64zM576 512c-4.16 0-8.32-1.76-11.36-4.64-2.88-3.04-4.64-7.04-4.64-11.36 0-4.16 1.76-8.32 4.64-11.36 5.92-5.92 16.64-5.92 22.72 0 2.88 3.04 4.64 7.2 4.64 11.36 0 4.32-1.76 8.32-4.64 11.36-3.04 2.88-7.2 4.64-11.36 4.64z" fill="#4A8765" p-id="13055"></path><path d="M160 256a16 16 0 0 1-16-16V112a16 16 0 0 1 32 0v128a16 16 0 0 1-16 16zM240 256a16 16 0 0 1-16-16V112a16 16 0 0 1 32 0v128a16 16 0 0 1-16 16zM320 256a16 16 0 0 1-16-16V112a16 16 0 0 1 32 0v128a16 16 0 0 1-16 16zM400 256a16 16 0 0 1-16-16V112a16 16 0 0 1 32 0v128a16 16 0 0 1-16 16zM480 256a16 16 0 0 1-16-16V112a16 16 0 0 1 32 0v128a16 16 0 0 1-16 16zM704 192c-4.16 0-8.32-1.76-11.36-4.64-2.88-3.04-4.64-7.2-4.64-11.36 0-4.16 1.76-8.32 4.64-11.36 5.92-5.92 16.64-5.92 22.72 0 2.88 3.04 4.64 7.2 4.64 11.36 0 4.16-1.76 8.32-4.64 11.36-3.04 2.88-7.2 4.64-11.36 4.64zM640 192c-4.16 0-8.32-1.76-11.36-4.64-2.88-3.04-4.64-7.2-4.64-11.36 0-4.16 1.76-8.32 4.64-11.36 6.08-5.92 16.8-5.92 22.72 0 2.88 3.04 4.64 7.2 4.64 11.36 0 4.16-1.76 8.32-4.64 11.36-3.04 2.88-7.2 4.64-11.36 4.64zM576 192c-4.16 0-8.32-1.76-11.36-4.64-2.88-3.04-4.64-7.2-4.64-11.36 0-4.16 1.76-8.32 4.64-11.36 6.08-5.92 16.64-5.92 22.72 0 2.88 3.04 4.64 7.2 4.64 11.36 0 4.16-1.76 8.32-4.64 11.36-3.04 2.88-7.2 4.64-11.36 4.64z" fill="#4A8765" p-id="13056"></path><path d="M160 896a16 16 0 0 1-16-16v-128a16 16 0 1 1 32 0v128a16 16 0 0 1-16 16zM240 896a16 16 0 0 1-16-16v-128a16 16 0 1 1 32 0v128a16 16 0 0 1-16 16zM320 896a16 16 0 0 1-16-16v-128a16 16 0 1 1 32 0v128a16 16 0 0 1-16 16zM400 896a16 16 0 0 1-16-16v-128a16 16 0 1 1 32 0v128a16 16 0 0 1-16 16zM480 896a16 16 0 0 1-16-16v-128a16 16 0 1 1 32 0v128a16 16 0 0 1-16 16zM704 832c-4.16 0-8.32-1.76-11.36-4.64-2.88-3.04-4.64-7.2-4.64-11.36s1.76-8.32 4.64-11.36c5.92-5.92 16.8-5.92 22.72 0 2.88 3.04 4.64 7.2 4.64 11.36s-1.76 8.32-4.64 11.36c-3.04 2.88-7.04 4.64-11.36 4.64zM640 832c-4.16 0-8.32-1.76-11.36-4.64-2.88-3.04-4.64-7.2-4.64-11.36s1.76-8.32 4.64-11.36c5.92-5.92 16.8-5.92 22.72 0 2.88 3.04 4.64 7.2 4.64 11.36s-1.76 8.32-4.64 11.36c-3.04 2.88-7.2 4.64-11.36 4.64zM576 832c-4.16 0-8.32-1.76-11.36-4.64-2.88-3.04-4.64-7.2-4.64-11.36 0-4.32 1.76-8.32 4.64-11.36 5.92-5.92 16.8-5.92 22.72 0 2.88 3.04 4.64 7.2 4.64 11.36s-1.76 8.32-4.64 11.36c-3.04 2.88-7.2 4.64-11.36 4.64z" fill="#4A8765" p-id="13057"></path></svg>