<?xml version="1.0" standalone="no"?><!DOCTYPE svg PUBLIC "-//W3C//DTD SVG 1.1//EN" "http://www.w3.org/Graphics/SVG/1.1/DTD/svg11.dtd"><svg t="1715417720724" class="icon" viewBox="0 0 1024 1024" version="1.1" xmlns="http://www.w3.org/2000/svg" p-id="12624" xmlns:xlink="http://www.w3.org/1999/xlink" width="128" height="128"><path d="M719.897864 736.040854c-167.608221 0-303.956876-136.348656-303.956876-303.956876S552.289644 128.127102 719.897864 128.127102s303.956876 136.348656 303.956877 303.956876-136.348656 303.956876-303.956877 303.956876z m0-575.918291c-149.962724 0-271.961415 121.998691-271.961415 271.961415s121.998691 271.961415 271.961415 271.961416 271.961415-121.998691 271.961416-271.961416-121.998691-271.961415-271.961416-271.961415z" fill="#4A8765" p-id="12625"></path><path d="M812.252762 244.062654a15.757764 15.757764 0 0 1-6.607063-1.439796l-4.895305-2.175691a15.981733 15.981733 0 1 1 12.494227-29.435824l5.647199 2.495646a15.99773 15.99773 0 0 1-6.639058 30.555665zM943.866089 448.081708a15.99773 15.99773 0 0 1-15.99773-15.99773c0-28.012026-5.503219-55.224165-16.349681-80.868527a207.970494 207.970494 0 0 0-44.633667-66.118619 209.682251 209.682251 0 0 0-18.845327-16.701631 15.965735 15.965735 0 1 1 19.709204-25.196425c7.61492 5.951156 14.925882 12.446234 21.756913 19.293263a239.965955 239.965955 0 0 1 51.464699 76.245183A238.302191 238.302191 0 0 1 959.863819 432.083978a15.99773 15.99773 0 0 1-15.99773 15.99773zM719.897864 544.06809c-61.751239 0-111.984112-50.232873-111.984112-111.984112s50.232873-111.984112 111.984112-111.984112 111.984112 50.232873 111.984113 111.984112-50.232873 111.984112-111.984113 111.984112z m0-191.972764c-44.105742 0-79.988652 35.882909-79.988651 79.988652s35.882909 79.988652 79.988651 79.988652 79.988652-35.882909 79.988652-79.988652-35.882909-79.988652-79.988652-79.988652z" fill="#4A8765" p-id="12626"></path><path d="M719.897864 480.077169c-26.460246 0-47.993191-21.532945-47.99319-47.993191s21.532945-47.993191 47.99319-47.993191 47.993191 21.532945 47.993191 47.993191-21.532945 47.993191-47.993191 47.993191z m0-63.990921a15.99773 15.99773 0 1 0 0.015998 32.011458A15.99773 15.99773 0 0 0 719.897864 416.086248z" fill="#4A8765" p-id="12627"></path><path d="M735.735618 1023.840023H319.954606a15.99773 15.99773 0 0 1-15.99773-15.997731V896.018157c0-23.276698-9.998581-48.153168-38.074598-48.153168h-31.515529c-57.751806 0-122.382637-47.881207-122.382637-111.984112v-143.979573H63.510989a47.113316 47.113316 0 0 1-39.946332-22.076868 48.217159 48.217159 0 0 1-2.815601-46.681377l125.054258-265.850282c18.557367-38.90648 38.394553-70.917939 60.711387-97.90611C259.067245 95.667707 327.153585 48.13845 403.38277 21.950166 529.876824-21.259704 672.480592 0.145259 784.928638 79.190045c5.471224 3.839455 11.006438 7.838888 16.317685 12.030293a15.965735 15.965735 0 1 1-19.693206 25.196425c-4.895305-3.823458-9.918593-7.486938-14.973875-11.006438C662.450015 32.204711 530.532731 12.367525 413.749299 52.233869c-70.629979 24.252559-133.757023 68.358302-182.566098 127.501911-20.637072 24.972457-39.098453 54.808224-56.471988 91.251054L49.68895 536.805121c-3.535498 7.454942-0.527925 13.598071 0.927869 15.901744 1.359807 2.159694 5.375237 7.198979 12.910168 7.198978H127.981843a15.99773 15.99773 0 0 1 15.99773 15.997731v159.977303c0 45.049609 48.585107 79.988652 90.387176 79.988652h31.515529C307.156422 815.869529 335.952337 848.824853 335.952337 896.018157v95.826405h384.153498c4.127414-93.10679 43.993758-186.14959 110.816278-257.467472l1.327812-1.487789a15.99773 15.99773 0 1 1 22.62079 22.620791c-65.750672 70.294027-103.137367 161.993017-103.137367 252.3322a15.99773 15.99773 0 0 1-15.99773 15.997731z" fill="#4A8765" p-id="12628"></path></svg>