<?xml version="1.0" standalone="no"?><!DOCTYPE svg PUBLIC "-//W3C//DTD SVG 1.1//EN" "http://www.w3.org/Graphics/SVG/1.1/DTD/svg11.dtd"><svg t="1724051913017" class="icon" viewBox="0 0 1024 1024" version="1.1" xmlns="http://www.w3.org/2000/svg" p-id="5458" xmlns:xlink="http://www.w3.org/1999/xlink" width="32" height="32"><path d="M956.48 972.8h-51.2c0-216.896-176.448-393.28-393.28-393.28S118.72 755.968 118.72 972.8h-51.2c0-200.192 132.992-369.856 315.264-425.344a277.12 277.12 0 0 1-147.712-244.864C235.072 149.888 359.296 25.6 512 25.6s276.928 124.224 276.928 276.928c0 106.112-59.904 198.4-147.712 244.864 182.336 55.488 315.264 225.216 315.264 425.344zM512 76.8c-124.48 0-225.728 101.248-225.728 225.728S387.52 528.256 512 528.256s225.728-101.248 225.728-225.728S636.48 76.8 512 76.8z" p-id="5459"></path></svg>