<?xml version="1.0" standalone="no"?><!DOCTYPE svg PUBLIC "-//W3C//DTD SVG 1.1//EN" "http://www.w3.org/Graphics/SVG/1.1/DTD/svg11.dtd"><svg t="1724052344942" class="icon" viewBox="0 0 1024 1024" version="1.1" xmlns="http://www.w3.org/2000/svg" p-id="18343" id="mx_n_1724052344943" xmlns:xlink="http://www.w3.org/1999/xlink" width="32" height="32"><path d="M878.528412 433.81527h-83.183753V283.244679C795.344659 127.075181 668.269479 0 512.09998 0S228.855302 127.075181 228.855302 283.244679v150.470611h-83.183753c-47.790666 0-86.68307 38.892404-86.68307 86.68307v416.91857c0 47.790666 38.892404 86.68307 86.68307 86.68307h732.856863c47.790666 0 86.68307-38.892404 86.68307-86.68307v-416.91857c0-47.790666-38.892404-86.583089-86.68307-86.58309zM295.542277 283.244679c0-119.376684 97.181019-216.557704 216.557703-216.557704s216.557704 97.181019 216.557704 216.557704v150.470611H295.542277V283.244679z m602.98223 654.172232c0 10.997852-8.998243 19.996095-19.996095 19.996094h-732.856863c-10.997852 0-19.996095-8.998243-19.996095-19.996094v-416.918571c0-10.997852 8.998243-19.996095 19.996095-19.996094h732.856863c10.997852 0 19.996095 8.998243 19.996095 19.996094v416.918571z" p-id="18344"></path><path d="M668.56942 589.584847h-312.938879c-18.396407 0-33.293497 14.89709-33.293497 33.293497s14.89709 33.293497 33.293497 33.293497h313.03886c18.396407 0 33.293497-14.89709 33.293497-33.293497s-14.89709-33.293497-33.393478-33.293497z" p-id="18345"></path></svg>