<?xml version="1.0" standalone="no"?><!DOCTYPE svg PUBLIC "-//W3C//DTD SVG 1.1//EN" "http://www.w3.org/Graphics/SVG/1.1/DTD/svg11.dtd"><svg t="1715417691045" class="icon" viewBox="0 0 1024 1024" version="1.1" xmlns="http://www.w3.org/2000/svg" p-id="12406" xmlns:xlink="http://www.w3.org/1999/xlink" width="128" height="128"><path d="M944 976H80c-44.112 0-80-35.888-80-80v-32a16 16 0 0 1 16-16h992a16 16 0 0 1 16 16v32c0 44.112-35.888 80-80 80zM32 880v16c0 26.464 21.536 48 48 48h864c26.464 0 48-21.536 48-48v-16H32z" fill="#4A8765" p-id="12407"></path><path d="M944 880H80a16 16 0 0 1-16-16V320c0-26.464 21.536-48 48-48h144a16 16 0 0 1 0 32H112c-8.816 0-16 7.184-16 16v528h832V320c0-8.816-7.184-16-16-16h-144a16 16 0 0 1 0-32h144c26.464 0 48 21.536 48 48v544a16 16 0 0 1-16 16z" fill="#4A8765" p-id="12408"></path><path d="M880 816H144a16 16 0 0 1-16-16V352a16 16 0 0 1 16-16h114.08a16 16 0 0 1 0 32H160v416h704V368h-97.92a16 16 0 0 1 0-32H880a16 16 0 0 1 16 16v448a16 16 0 0 1-16 16z" fill="#4A8765" p-id="12409"></path><path d="M512 592c-149.984 0-272-122.016-272-272S362.016 48 512 48s272 122.016 272 272-122.016 272-272 272z m0-512c-132.336 0-240 107.664-240 240s107.664 240 240 240 240-107.664 240-240S644.336 80 512 80z" fill="#4A8765" p-id="12410"></path><path d="M512 592a16 16 0 0 1-16-16V64a16 16 0 0 1 32 0v512a16 16 0 0 1-16 16z" fill="#4A8765" p-id="12411"></path><path d="M749.28 240H274.72a16 16 0 0 1 0-32h474.56a16 16 0 0 1 0 32z" fill="#4A8765" p-id="12412"></path><path d="M565.28 586.56a16 16 0 0 1-12.352-26.16c36.4-44.256 61.824-94.16 75.568-148.336 7.632-29.792 11.504-60.32 11.504-90.784 0-31.36-4.016-62.72-11.968-93.264-14.4-54.448-40.56-104.528-77.712-148.768a16 16 0 1 1 24.48-20.576c40.224 47.872 68.544 102.112 84.192 161.232 8.64 33.216 13.008 67.312 13.008 101.376 0 33.12-4.208 66.336-12.496 98.704-14.896 58.72-42.448 112.816-81.856 160.736a15.984 15.984 0 0 1-12.368 5.84zM512 928c-4.16 0-8.32-1.76-11.36-4.64-2.88-3.04-4.64-7.2-4.64-11.36 0-4.16 1.76-8.32 4.64-11.36 6.08-5.92 16.8-5.92 22.72 0 2.88 3.04 4.64 7.2 4.64 11.36 0 4.16-1.76 8.32-4.64 11.36-3.04 2.88-7.2 4.64-11.36 4.64zM576 928a16.112 16.112 0 0 1-16-16c0-4.32 1.76-8.32 4.64-11.36 6.08-5.92 16.8-5.92 22.72 0 2.88 3.04 4.64 7.2 4.64 11.36 0 4.16-1.76 8.32-4.64 11.36-3.04 2.88-7.04 4.64-11.36 4.64zM448 928c-4.16 0-8.32-1.76-11.36-4.64-2.88-3.04-4.64-7.04-4.64-11.36s1.76-8.32 4.64-11.36c5.92-5.92 16.64-5.92 22.72 0 2.88 3.04 4.64 7.2 4.64 11.36 0 4.16-1.76 8.32-4.64 11.36-3.04 2.88-7.2 4.64-11.36 4.64z" fill="#4A8765" p-id="12413"></path><path d="M749.28 432H274.72a16 16 0 0 1 0-32h474.56a16 16 0 0 1 0 32z" fill="#4A8765" p-id="12414"></path><path d="M458.72 586.56a15.984 15.984 0 0 1-12.368-5.84c-39.408-47.92-66.96-102.016-81.856-160.784A397.504 397.504 0 0 1 352 321.28c0-34.08 4.368-68.16 12.992-101.296 15.664-59.2 43.984-113.44 84.192-161.312a16 16 0 1 1 24.496 20.576c-37.152 44.24-63.312 94.32-77.728 148.848A370.608 370.608 0 0 0 384 321.28c0 30.448 3.872 60.992 11.504 90.736 13.76 54.224 39.168 104.128 75.568 148.384a16 16 0 0 1-12.352 26.16z" fill="#4A8765" p-id="12415"></path></svg>