<?xml version="1.0" standalone="no"?><!DOCTYPE svg PUBLIC "-//W3C//DTD SVG 1.1//EN" "http://www.w3.org/Graphics/SVG/1.1/DTD/svg11.dtd"><svg t="1715417395274" class="icon" viewBox="0 0 1024 1024" version="1.1" xmlns="http://www.w3.org/2000/svg" p-id="6591" xmlns:xlink="http://www.w3.org/1999/xlink" width="128" height="128"><path d="M816 1024H208c-26.464 0-48-21.536-48-48V48c0-26.464 21.536-48 48-48h608c26.464 0 48 21.536 48 48v928c0 26.464-21.536 48-48 48zM208 32c-8.832 0-16 7.184-16 16v928c0 8.816 7.168 16 16 16h608c8.832 0 16-7.184 16-16V48c0-8.816-7.168-16-16-16H208z" fill="#4A8765" p-id="6592"></path><path d="M512 960c-141.152 0-256-114.848-256-256s114.848-256 256-256 256 114.848 256 256-114.848 256-256 256z m0-480c-123.52 0-224 100.48-224 224s100.48 224 224 224 224-100.48 224-224-100.48-224-224-224z" fill="#4A8765" p-id="6593"></path><path d="M512 896c-105.872 0-192-86.128-192-192s86.128-192 192-192 192 86.128 192 192-86.128 192-192 192z m0-352c-88.224 0-160 71.776-160 160s71.776 160 160 160 160-71.776 160-160-71.776-160-160-160z" fill="#4A8765" p-id="6594"></path><path d="M512 768c-35.296 0-64-28.704-64-64s28.704-64 64-64 64 28.704 64 64-28.704 64-64 64z m0-96c-17.648 0-32 14.352-32 32s14.352 32 32 32 32-14.352 32-32-14.352-32-32-32zM512 352c-79.408 0-144-64.608-144-144s64.592-144 144-144 144 64.608 144 144-64.592 144-144 144z m0-256c-61.76 0-112 50.24-112 112s50.24 112 112 112 112-50.24 112-112-50.24-112-112-112z" fill="#4A8765" p-id="6595"></path><path d="M512 256c-26.464 0-48-21.536-48-48s21.536-48 48-48 48 21.536 48 48-21.536 48-48 48z m0-64a16.016 16.016 0 0 0 0 32 16.016 16.016 0 0 0 0-32zM320 224c-4.32 0-8.32-1.76-11.36-4.64-2.88-3.04-4.64-7.2-4.64-11.36 0-4.32 1.76-8.32 4.64-11.36 5.92-5.92 16.64-5.92 22.72 0 2.88 3.04 4.64 7.04 4.64 11.36 0 4.16-1.76 8.32-4.64 11.36-3.04 2.88-7.2 4.64-11.36 4.64zM704 224c-4.16 0-8.32-1.76-11.36-4.64-2.88-3.04-4.64-7.2-4.64-11.36 0-4.16 1.76-8.32 4.64-11.36 5.92-5.92 16.8-5.92 22.72 0 2.88 3.04 4.64 7.2 4.64 11.36 0 4.16-1.76 8.32-4.64 11.36-3.04 2.88-7.2 4.64-11.36 4.64zM421.44 133.44a15.952 15.952 0 0 1-11.312-4.688l-37.44-37.44a16 16 0 1 1 22.624-22.624l37.44 37.44a16 16 0 0 1-11.312 27.312zM640 352a15.952 15.952 0 0 1-11.312-4.688l-37.44-37.44a16 16 0 1 1 22.624-22.624l37.44 37.44A16 16 0 0 1 640 352zM602.56 133.44a16 16 0 0 1-11.312-27.312l37.44-37.44a16 16 0 1 1 22.624 22.624l-37.44 37.44a15.952 15.952 0 0 1-11.312 4.688zM384 352a16 16 0 0 1-11.312-27.312l37.44-37.44a16 16 0 1 1 22.624 22.624l-37.44 37.44A15.952 15.952 0 0 1 384 352zM768 224c-4.32 0-8.32-1.76-11.36-4.64-2.88-3.04-4.64-7.04-4.64-11.36s1.76-8.32 4.64-11.36c5.92-5.92 16.8-5.92 22.72 0 2.88 3.04 4.64 7.04 4.64 11.36s-1.76 8.32-4.64 11.36c-3.04 2.88-7.04 4.64-11.36 4.64zM256 224c-4.16 0-8.32-1.76-11.36-4.64-2.88-3.04-4.64-7.2-4.64-11.36 0-4.16 1.76-8.32 4.64-11.36 5.92-5.92 16.64-5.92 22.72 0 2.88 3.04 4.64 7.04 4.64 11.36 0 4.16-1.76 8.32-4.64 11.36-3.04 2.88-7.2 4.64-11.36 4.64z" fill="#4A8765" p-id="6596"></path><path d="M256 480m-32 0a32 32 0 1 0 64 0 32 32 0 1 0-64 0Z" fill="#4A8765" p-id="6597"></path><path d="M768 480m-32 0a32 32 0 1 0 64 0 32 32 0 1 0-64 0Z" fill="#4A8765" p-id="6598"></path><path d="M768 928m-32 0a32 32 0 1 0 64 0 32 32 0 1 0-64 0Z" fill="#4A8765" p-id="6599"></path><path d="M256 928m-32 0a32 32 0 1 0 64 0 32 32 0 1 0-64 0Z" fill="#4A8765" p-id="6600"></path></svg>