<?xml version="1.0" standalone="no"?><!DOCTYPE svg PUBLIC "-//W3C//DTD SVG 1.1//EN" "http://www.w3.org/Graphics/SVG/1.1/DTD/svg11.dtd"><svg t="1715417347227" class="icon" viewBox="0 0 1024 1024" version="1.1" xmlns="http://www.w3.org/2000/svg" p-id="6256" xmlns:xlink="http://www.w3.org/1999/xlink" width="128" height="128"><path d="M816 896H208c-44.112 0-80-35.888-80-80V208c0-44.112 35.888-80 80-80h608c44.112 0 80 35.888 80 80v608c0 44.112-35.888 80-80 80zM208 160c-26.464 0-48 21.536-48 48v608c0 26.464 21.536 48 48 48h608c26.464 0 48-21.536 48-48V208c0-26.464-21.536-48-48-48H208zM1008 288h-64a16 16 0 0 1 0-32h64a16 16 0 0 1 0 32z" fill="#4A8765" p-id="6257"></path><path d="M944 320h-64a16 16 0 0 1-16-16v-64a16 16 0 0 1 16-16h64a16 16 0 0 1 16 16v64a16 16 0 0 1-16 16z m-48-32h32v-32h-32v32zM944 480h-64a16 16 0 0 1-16-16v-64a16 16 0 0 1 16-16h64a16 16 0 0 1 16 16v64a16 16 0 0 1-16 16z m-48-32h32v-32h-32v32zM944 640h-64a16 16 0 0 1-16-16v-64a16 16 0 0 1 16-16h64a16 16 0 0 1 16 16v64a16 16 0 0 1-16 16z m-48-32h32v-32h-32v32zM944 800h-64a16 16 0 0 1-16-16v-64a16 16 0 0 1 16-16h64a16 16 0 0 1 16 16v64a16 16 0 0 1-16 16z m-48-32h32v-32h-32v32z" fill="#4A8765" p-id="6258"></path><path d="M1008 448h-64a16 16 0 0 1 0-32h64a16 16 0 0 1 0 32zM1008 608h-64a16 16 0 0 1 0-32h64a16 16 0 0 1 0 32zM1008 768h-64a16 16 0 0 1 0-32h64a16 16 0 0 1 0 32zM272 96a16 16 0 0 1-16-16V16a16 16 0 0 1 32 0v64a16 16 0 0 1-16 16z" fill="#4A8765" p-id="6259"></path><path d="M304 160h-64a16 16 0 0 1-16-16V80a16 16 0 0 1 16-16h64a16 16 0 0 1 16 16v64a16 16 0 0 1-16 16z m-48-32h32V96h-32v32zM464 160h-64a16 16 0 0 1-16-16V80a16 16 0 0 1 16-16h64a16 16 0 0 1 16 16v64a16 16 0 0 1-16 16z m-48-32h32V96h-32v32zM624 160h-64a16 16 0 0 1-16-16V80a16 16 0 0 1 16-16h64a16 16 0 0 1 16 16v64a16 16 0 0 1-16 16z m-48-32h32V96h-32v32zM784 160h-64a16 16 0 0 1-16-16V80a16 16 0 0 1 16-16h64a16 16 0 0 1 16 16v64a16 16 0 0 1-16 16z m-48-32h32V96h-32v32z" fill="#4A8765" p-id="6260"></path><path d="M432 96a16 16 0 0 1-16-16V16a16 16 0 0 1 32 0v64a16 16 0 0 1-16 16zM592 96a16 16 0 0 1-16-16V16a16 16 0 0 1 32 0v64a16 16 0 0 1-16 16zM752 96a16 16 0 0 1-16-16V16a16 16 0 0 1 32 0v64a16 16 0 0 1-16 16zM272 1024a16 16 0 0 1-16-16v-64a16 16 0 0 1 32 0v64a16 16 0 0 1-16 16z" fill="#4A8765" p-id="6261"></path><path d="M304 960h-64a16 16 0 0 1-16-16v-64a16 16 0 0 1 16-16h64a16 16 0 0 1 16 16v64a16 16 0 0 1-16 16z m-48-32h32v-32h-32v32zM464 960h-64a16 16 0 0 1-16-16v-64a16 16 0 0 1 16-16h64a16 16 0 0 1 16 16v64a16 16 0 0 1-16 16z m-48-32h32v-32h-32v32zM624 960h-64a16 16 0 0 1-16-16v-64a16 16 0 0 1 16-16h64a16 16 0 0 1 16 16v64a16 16 0 0 1-16 16z m-48-32h32v-32h-32v32zM784 960h-64a16 16 0 0 1-16-16v-64a16 16 0 0 1 16-16h64a16 16 0 0 1 16 16v64a16 16 0 0 1-16 16z m-48-32h32v-32h-32v32z" fill="#4A8765" p-id="6262"></path><path d="M432 1024a16 16 0 0 1-16-16v-64a16 16 0 0 1 32 0v64a16 16 0 0 1-16 16zM592 1024a16 16 0 0 1-16-16v-64a16 16 0 0 1 32 0v64a16 16 0 0 1-16 16zM752 1024a16 16 0 0 1-16-16v-64a16 16 0 0 1 32 0v64a16 16 0 0 1-16 16zM80 288H16a16 16 0 0 1 0-32h64a16 16 0 0 1 0 32z" fill="#4A8765" p-id="6263"></path><path d="M144 320H80a16 16 0 0 1-16-16v-64a16 16 0 0 1 16-16h64a16 16 0 0 1 16 16v64a16 16 0 0 1-16 16z m-48-32h32v-32H96v32zM144 480H80a16 16 0 0 1-16-16v-64a16 16 0 0 1 16-16h64a16 16 0 0 1 16 16v64a16 16 0 0 1-16 16z m-48-32h32v-32H96v32zM144 640H80a16 16 0 0 1-16-16v-64a16 16 0 0 1 16-16h64a16 16 0 0 1 16 16v64a16 16 0 0 1-16 16z m-48-32h32v-32H96v32zM144 800H80a16 16 0 0 1-16-16v-64a16 16 0 0 1 16-16h64a16 16 0 0 1 16 16v64a16 16 0 0 1-16 16z m-48-32h32v-32H96v32z" fill="#4A8765" p-id="6264"></path><path d="M80 448H16a16 16 0 0 1 0-32h64a16 16 0 0 1 0 32zM80 608H16a16 16 0 0 1 0-32h64a16 16 0 0 1 0 32zM80 768H16a16 16 0 0 1 0-32h64a16 16 0 0 1 0 32zM272 320c-26.464 0-48-21.536-48-48s21.536-48 48-48 48 21.536 48 48-21.536 48-48 48z m0-64c-8.816 0-16 7.184-16 16s7.184 16 16 16 16-7.184 16-16-7.184-16-16-16zM752 320c-26.464 0-48-21.536-48-48s21.536-48 48-48 48 21.536 48 48-21.536 48-48 48z m0-64c-8.816 0-16 7.184-16 16s7.184 16 16 16 16-7.184 16-16-7.184-16-16-16zM272 800c-26.464 0-48-21.536-48-48s21.536-48 48-48 48 21.536 48 48-21.536 48-48 48z m0-64c-8.816 0-16 7.184-16 16s7.184 16 16 16 16-7.184 16-16-7.184-16-16-16zM752 800c-26.464 0-48-21.536-48-48s21.536-48 48-48 48 21.536 48 48-21.536 48-48 48z m0-64c-8.816 0-16 7.184-16 16s7.184 16 16 16 16-7.184 16-16-7.184-16-16-16zM512 528c-4.16 0-8.32-1.76-11.36-4.64-2.88-3.04-4.64-7.2-4.64-11.36 0-4.16 1.76-8.32 4.64-11.36 6.08-5.92 16.8-5.92 22.72 0 2.88 3.04 4.64 7.2 4.64 11.36 0 4.16-1.76 8.32-4.64 11.36-3.04 2.88-7.2 4.64-11.36 4.64zM512 464c-4.16 0-8.32-1.76-11.36-4.64-2.88-3.04-4.64-7.2-4.64-11.36 0-4.16 1.76-8.32 4.64-11.36 6.08-5.92 16.8-5.92 22.72 0 2.88 3.04 4.64 7.2 4.64 11.36 0 4.16-1.76 8.32-4.64 11.36-3.04 2.88-7.2 4.64-11.36 4.64zM512 592c-4.16 0-8.32-1.76-11.36-4.64-2.88-3.04-4.64-7.2-4.64-11.36 0-4.16 1.76-8.32 4.64-11.36 6.08-5.92 16.8-5.92 22.72 0 2.88 3.04 4.64 7.2 4.64 11.36 0 4.16-1.76 8.32-4.64 11.36-3.04 2.88-7.04 4.64-11.36 4.64zM448 528c-4.16 0-8.32-1.76-11.36-4.64-2.88-3.04-4.64-7.2-4.64-11.36 0-4.32 1.76-8.32 4.64-11.36 5.92-5.92 16.64-5.92 22.72 0 2.88 3.04 4.64 7.2 4.64 11.36 0 4.16-1.76 8.32-4.64 11.36-3.04 2.88-7.2 4.64-11.36 4.64z" fill="#4A8765" p-id="6265"></path><path d="M448 464c-4.16 0-8.32-1.76-11.36-4.64-2.88-3.04-4.64-7.04-4.64-11.36s1.76-8.32 4.64-11.36c5.92-5.92 16.64-5.92 22.72 0 2.88 3.04 4.64 7.2 4.64 11.36 0 4.16-1.76 8.32-4.64 11.36-3.04 2.88-7.2 4.64-11.36 4.64z" fill="#4A8765" p-id="6266"></path><path d="M448 592c-4.16 0-8.32-1.76-11.36-4.64-2.88-3.04-4.64-7.04-4.64-11.36s1.76-8.32 4.64-11.36c5.92-5.92 16.64-5.92 22.72 0 2.88 3.04 4.64 7.2 4.64 11.36 0 4.16-1.76 8.32-4.64 11.36-3.04 2.88-7.2 4.64-11.36 4.64z" fill="#4A8765" p-id="6267"></path><path d="M640 528c-4.16 0-8.32-1.76-11.36-4.64-2.88-3.04-4.64-7.2-4.64-11.36 0-4.16 1.76-8.32 4.64-11.36 5.92-5.92 16.8-5.92 22.72 0 2.88 3.04 4.64 7.2 4.64 11.36 0 4.16-1.76 8.32-4.64 11.36-3.04 2.88-7.2 4.64-11.36 4.64z" fill="#4A8765" p-id="6268"></path><path d="M640 464c-4.16 0-8.32-1.76-11.36-4.64-2.88-3.04-4.64-7.2-4.64-11.36 0-4.16 1.76-8.32 4.64-11.36 5.92-5.92 16.64-5.92 22.72 0 2.88 3.04 4.64 7.2 4.64 11.36 0 4.16-1.76 8.32-4.64 11.36-3.04 2.88-7.2 4.64-11.36 4.64z" fill="#4A8765" p-id="6269"></path><path d="M640 592c-4.16 0-8.32-1.76-11.36-4.64-2.88-3.04-4.64-7.2-4.64-11.36 0-4.16 1.76-8.32 4.64-11.36 5.92-5.92 16.8-5.92 22.72 0 2.88 3.04 4.64 7.2 4.64 11.36 0 4.16-1.76 8.32-4.64 11.36-3.04 2.88-7.2 4.64-11.36 4.64z" fill="#4A8765" p-id="6270"></path><path d="M576 528c-4.16 0-8.32-1.76-11.36-4.64-2.88-3.04-4.64-7.04-4.64-11.36 0-4.16 1.76-8.32 4.64-11.36 5.92-5.92 16.8-5.92 22.72 0 2.88 3.04 4.64 7.2 4.64 11.36 0 4.16-1.76 8.32-4.64 11.36-3.04 2.88-7.2 4.64-11.36 4.64z" fill="#4A8765" p-id="6271"></path><path d="M576 464c-4.16 0-8.32-1.76-11.36-4.64-2.88-3.04-4.64-7.2-4.64-11.36 0-4.32 1.76-8.32 4.64-11.36 6.08-5.92 16.8-5.92 22.72 0 2.88 3.04 4.64 7.2 4.64 11.36 0 4.16-1.76 8.32-4.64 11.36-3.04 2.88-7.04 4.64-11.36 4.64z" fill="#4A8765" p-id="6272"></path><path d="M576 592c-4.16 0-8.32-1.76-11.36-4.64-2.88-3.04-4.64-7.04-4.64-11.36 0-4.16 1.76-8.32 4.64-11.36 6.08-5.92 16.8-5.92 22.72 0 2.88 3.04 4.64 7.2 4.64 11.36 0 4.16-1.76 8.32-4.64 11.36-3.04 2.88-7.2 4.64-11.36 4.64z" fill="#4A8765" p-id="6273"></path><path d="M384 528c-4.16 0-8.32-1.76-11.36-4.64-2.88-3.04-4.64-7.04-4.64-11.36s1.76-8.32 4.64-11.36c5.92-5.92 16.8-5.92 22.72 0 2.88 3.04 4.64 7.2 4.64 11.36 0 4.16-1.76 8.32-4.64 11.36-3.04 2.88-7.04 4.64-11.36 4.64z" fill="#4A8765" p-id="6274"></path><path d="M384 464c-4.32 0-8.32-1.76-11.36-4.64-2.88-3.04-4.64-7.04-4.64-11.36s1.76-8.32 4.64-11.36c5.92-5.92 16.8-5.92 22.72 0 2.88 3.04 4.64 7.2 4.64 11.36 0 4.16-1.76 8.32-4.64 11.36-3.04 2.88-7.04 4.64-11.36 4.64z" fill="#4A8765" p-id="6275"></path><path d="M384 592c-4.16 0-8.32-1.76-11.36-4.64-2.88-3.04-4.64-7.04-4.64-11.36 0-4.16 1.76-8.32 4.64-11.36 5.92-5.92 16.8-5.92 22.72 0 2.88 3.04 4.64 7.2 4.64 11.36 0 4.16-1.76 8.32-4.64 11.36-3.04 2.88-7.04 4.64-11.36 4.64z" fill="#4A8765" p-id="6276"></path><path d="M320 528c-4.16 0-8.32-1.76-11.36-4.64-2.88-3.04-4.64-7.2-4.64-11.36 0-4.16 1.76-8.32 4.64-11.36 6.08-5.92 16.8-5.92 22.72 0 2.88 3.04 4.64 7.2 4.64 11.36 0 4.16-1.76 8.32-4.64 11.36-3.04 2.88-7.2 4.64-11.36 4.64z" fill="#4A8765" p-id="6277"></path><path d="M704 528c-4.16 0-8.32-1.76-11.36-4.64-2.88-3.04-4.64-7.2-4.64-11.36 0-4.16 1.76-8.32 4.64-11.36 5.92-5.92 16.64-5.92 22.72 0 2.88 3.04 4.64 7.2 4.64 11.36 0 4.16-1.76 8.32-4.64 11.36-3.04 2.88-7.2 4.64-11.36 4.64z" fill="#4A8765" p-id="6278"></path><path d="M448 400c-4.16 0-8.32-1.76-11.36-4.64-2.88-3.04-4.64-7.04-4.64-11.36 0-4.16 1.76-8.32 4.64-11.36 5.92-5.92 16.64-5.92 22.72 0 2.88 3.04 4.64 7.2 4.64 11.36 0 4.16-1.76 8.32-4.64 11.36-3.04 2.88-7.2 4.64-11.36 4.64z" fill="#4A8765" p-id="6279"></path><path d="M576 400c-4.16 0-8.32-1.76-11.36-4.64-2.88-3.04-4.64-7.2-4.64-11.36 0-4.32 1.76-8.32 4.64-11.36 5.92-5.92 16.8-5.92 22.72 0 2.88 3.04 4.64 7.2 4.64 11.36 0 4.16-1.76 8.32-4.64 11.36-3.04 2.88-7.2 4.64-11.36 4.64z" fill="#4A8765" p-id="6280"></path><path d="M320 400c-4.16 0-8.32-1.76-11.36-4.64-2.88-3.04-4.64-7.2-4.64-11.36 0-4.16 1.76-8.32 4.64-11.36 6.08-5.92 16.8-5.92 22.72 0 2.88 3.04 4.64 7.2 4.64 11.36 0 4.16-1.76 8.32-4.64 11.36-3.04 2.88-7.2 4.64-11.36 4.64z" fill="#4A8765" p-id="6281"></path><path d="M704 400c-4.16 0-8.32-1.76-11.36-4.64-2.88-3.04-4.64-7.2-4.64-11.36 0-4.16 1.76-8.32 4.64-11.36 5.92-5.92 16.8-5.92 22.72 0.16 2.88 2.88 4.64 7.04 4.64 11.2 0 4.16-1.76 8.32-4.64 11.36-3.04 2.88-7.2 4.64-11.36 4.64z" fill="#4A8765" p-id="6282"></path><path d="M448 656c-4.16 0-8.32-1.76-11.36-4.64-2.88-3.04-4.64-7.04-4.64-11.36s1.76-8.32 4.64-11.36c5.92-5.92 16.64-5.92 22.72 0 2.88 3.04 4.64 7.2 4.64 11.36 0 4.16-1.76 8.32-4.64 11.36-3.04 2.88-7.2 4.64-11.36 4.64z" fill="#4A8765" p-id="6283"></path><path d="M576 656c-4.16 0-8.32-1.76-11.36-4.64-2.88-3.04-4.64-7.2-4.64-11.36 0-4.32 1.76-8.32 4.64-11.36 6.08-5.92 16.8-5.92 22.72 0 2.88 3.04 4.64 7.2 4.64 11.36 0 4.16-1.76 8.32-4.64 11.36-3.04 2.88-7.2 4.64-11.36 4.64z" fill="#4A8765" p-id="6284"></path><path d="M320 656c-4.16 0-8.32-1.76-11.36-4.64-2.88-3.04-4.64-7.04-4.64-11.36 0-4.16 1.76-8.32 4.64-11.36 6.08-5.92 16.8-5.92 22.72 0 2.88 3.04 4.64 7.2 4.64 11.36 0 4.16-1.76 8.32-4.64 11.36-3.04 2.88-7.2 4.64-11.36 4.64z" fill="#4A8765" p-id="6285"></path><path d="M704 656c-4.16 0-8.32-1.76-11.36-4.64-2.88-3.04-4.64-7.2-4.64-11.36 0-4.16 1.76-8.32 4.64-11.36 5.92-5.92 16.8-5.92 22.72 0 2.88 3.04 4.64 7.2 4.64 11.36 0 4.16-1.76 8.32-4.64 11.36-3.04 2.88-7.2 4.64-11.36 4.64z" fill="#4A8765" p-id="6286"></path></svg>