<?xml version="1.0" standalone="no"?><!DOCTYPE svg PUBLIC "-//W3C//DTD SVG 1.1//EN" "http://www.w3.org/Graphics/SVG/1.1/DTD/svg11.dtd"><svg t="1715417407810" class="icon" viewBox="0 0 1024 1024" version="1.1" xmlns="http://www.w3.org/2000/svg" p-id="6809" xmlns:xlink="http://www.w3.org/1999/xlink" width="128" height="128"><path d="M928 464h-112a16 16 0 1 1 0-32h101.776l74.432-160.64L32.32 272l73.92 160H208a16 16 0 1 1 0 32H96a16 16 0 0 1-14.512-9.28L2.768 284.8a31.648 31.648 0 0 1 2.48-30.272A32.272 32.272 0 0 1 32.32 240h959.36c10.976 0 21.088 5.44 27.072 14.528 5.888 8.96 6.88 20.112 2.656 29.888l-78.88 170.304A16 16 0 0 1 928 464z" fill="#4A8765" p-id="6810"></path><path d="M656 464H368a16 16 0 1 1 0-32h288a16 16 0 1 1 0 32z" fill="#4A8765" p-id="6811"></path><path d="M656 464H368a16 16 0 1 1 0-32h288a16 16 0 1 1 0 32z" fill="#4A8765" p-id="6812"></path><path d="M862.72 464H816a16 16 0 1 1 0-32h36.112l40.56-96H131.328l40.56 96H208a16 16 0 1 1 0 32h-46.72a15.984 15.984 0 0 1-14.72-9.76l-54.08-128A15.984 15.984 0 0 1 107.2 304h809.6a15.984 15.984 0 0 1 14.72 22.24l-54.08 128a15.984 15.984 0 0 1-14.72 9.76z" fill="#4A8765" p-id="6813"></path><path d="M656 464H368a16 16 0 1 1 0-32h288a16 16 0 1 1 0 32z" fill="#4A8765" p-id="6814"></path><path d="M896 1024H128c-26.464 0-48-21.536-48-48V448a16 16 0 0 1 16-16h112a16 16 0 1 1 0 32H112v512a16 16 0 0 0 16 16h768a16 16 0 0 0 16-16V464h-96a16 16 0 1 1 0-32h112a16 16 0 0 1 16 16v528c0 26.464-21.536 48-48 48z" fill="#4A8765" p-id="6815"></path><path d="M352 496h-128c-17.648 0-32-14.352-32-32v-32c0-17.648 14.352-32 32-32h128c17.648 0 32 14.352 32 32v32c0 17.648-14.352 32-32 32z m-128-64v32h128.032L352 432h-128zM800 496h-128c-17.648 0-32-14.352-32-32v-32c0-17.648 14.352-32 32-32h128c17.648 0 32 14.352 32 32v32c0 17.648-14.352 32-32 32z m-128-64v32h128.032L800 432h-128zM512 560c-4.32 0-8.32-1.76-11.36-4.64-2.88-3.04-4.64-7.04-4.64-11.36 0-4.32 1.76-8.32 4.64-11.36 5.92-5.92 16.8-5.92 22.72 0 2.88 3.04 4.64 7.2 4.64 11.36s-1.76 8.32-4.64 11.36c-3.04 2.88-7.2 4.64-11.36 4.64zM576 560c-4.32 0-8.32-1.76-11.36-4.64-2.88-3.04-4.64-7.2-4.64-11.36s1.76-8.32 4.64-11.36c5.76-5.76 16.8-5.92 22.72 0 2.88 3.04 4.64 7.2 4.64 11.36s-1.76 8.32-4.64 11.36c-3.04 2.88-7.2 4.64-11.36 4.64zM448 560c-4.32 0-8.32-1.76-11.36-4.64-2.88-3.04-4.64-7.2-4.64-11.36s1.76-8.32 4.64-11.36c5.92-5.92 16.8-5.92 22.72 0 2.88 3.04 4.64 7.2 4.64 11.36s-1.76 8.32-4.64 11.36c-3.04 2.88-7.2 4.64-11.36 4.64zM704 560c-4.32 0-8.32-1.76-11.36-4.64-2.88-3.04-4.64-7.2-4.64-11.36s1.76-8.32 4.64-11.36c5.92-5.92 16.8-5.92 22.72 0 2.88 3.04 4.64 7.04 4.64 11.36 0 4.32-1.76 8.32-4.64 11.36-3.04 2.88-7.2 4.64-11.36 4.64zM768 560c-4.16 0-8.32-1.76-11.36-4.64-2.88-3.04-4.64-7.04-4.64-11.36 0-4.32 1.76-8.32 4.64-11.36 5.92-5.92 16.8-5.92 22.72 0 2.88 3.04 4.64 7.2 4.64 11.36s-1.76 8.32-4.64 11.36c-3.04 2.88-7.04 4.64-11.36 4.64zM640 560c-4.32 0-8.32-1.76-11.36-4.64-2.88-3.04-4.64-7.2-4.64-11.36s1.76-8.32 4.64-11.36c5.92-5.92 16.8-5.92 22.72 0 2.88 3.04 4.64 7.2 4.64 11.36s-1.76 8.32-4.8 11.36c-2.88 2.88-6.88 4.64-11.2 4.64zM320 560c-4.16 0-8.32-1.76-11.36-4.64-2.88-3.04-4.64-7.04-4.64-11.36 0-4.32 1.76-8.32 4.64-11.36 5.92-5.92 16.8-5.92 22.72 0 2.88 3.04 4.64 7.2 4.64 11.36s-1.76 8.32-4.64 11.36c-3.04 2.88-7.04 4.64-11.36 4.64zM384 560c-4.16 0-8.32-1.76-11.36-4.64-2.88-3.04-4.64-7.04-4.64-11.36 0-4.16 1.76-8.32 4.64-11.36 5.92-5.92 16.8-5.92 22.72 0 2.88 3.04 4.64 7.2 4.64 11.36s-1.76 8.32-4.64 11.36c-3.04 2.88-7.2 4.64-11.36 4.64zM256 560c-4.32 0-8.32-1.76-11.36-4.64-2.88-3.04-4.64-7.2-4.64-11.36s1.76-8.32 4.64-11.36c5.92-5.92 16.8-5.92 22.72 0 2.88 3.04 4.64 7.2 4.64 11.36s-1.76 8.32-4.64 11.36c-3.04 2.88-7.2 4.64-11.36 4.64zM192 560c-4.16 0-8.32-1.76-11.36-4.64-2.88-3.04-4.64-7.2-4.64-11.36s1.76-8.32 4.64-11.36c6.08-5.92 16.8-5.92 22.72 0 2.88 3.04 4.64 7.2 4.64 11.36s-1.76 8.32-4.8 11.36c-2.88 2.88-6.88 4.64-11.2 4.64zM832 560c-4.16 0-8.32-1.76-11.36-4.64-2.88-3.04-4.64-7.04-4.64-11.36 0-4.16 1.76-8.32 4.64-11.36 5.92-5.92 16.8-5.92 22.72 0 2.88 3.04 4.64 7.2 4.64 11.36s-1.76 8.32-4.64 11.36c-3.04 2.88-7.2 4.64-11.36 4.64zM512 624c-4.16 0-8.32-1.76-11.36-4.64A16.8 16.8 0 0 1 496 608c0-4.32 1.76-8.32 4.64-11.36 6.08-5.92 16.64-5.92 22.72 0 2.88 3.04 4.64 7.04 4.64 11.36 0 4.16-1.76 8.32-4.64 11.36-3.04 2.88-7.2 4.64-11.36 4.64zM576 624c-4.16 0-8.32-1.76-11.36-4.64A16.8 16.8 0 0 1 560 608c0-4.32 1.76-8.32 4.64-11.36 6.08-5.92 16.64-5.92 22.72 0a16.16 16.16 0 0 1 0 22.72c-3.04 2.88-7.2 4.64-11.36 4.64zM448 624c-4.16 0-8.32-1.76-11.36-4.64-2.88-3.04-4.64-7.2-4.64-11.36s1.76-8.32 4.64-11.36c6.08-5.92 16.64-5.92 22.72 0 2.88 3.04 4.64 7.2 4.64 11.36s-1.76 8.32-4.64 11.36c-3.04 2.88-7.2 4.64-11.36 4.64zM704 624c-4.16 0-8.32-1.76-11.36-4.64-2.88-3.04-4.64-7.2-4.64-11.36s1.76-8.32 4.64-11.36c6.08-5.92 16.64-5.92 22.72 0 2.88 3.04 4.64 7.2 4.64 11.36s-1.76 8.32-4.64 11.36c-3.04 2.88-7.2 4.64-11.36 4.64zM768 624c-4.16 0-8.32-1.76-11.36-4.64A16.8 16.8 0 0 1 752 608c0-4.32 1.76-8.32 4.64-11.36 6.08-5.92 16.64-5.92 22.72 0 2.88 3.04 4.64 7.04 4.64 11.36 0 4.16-1.76 8.32-4.64 11.36-3.04 2.88-7.2 4.64-11.36 4.64zM640 624c-4.32 0-8.32-1.76-11.36-4.64-2.88-3.04-4.64-7.2-4.64-11.36s1.76-8.32 4.64-11.36c6.08-5.92 16.64-5.92 22.72 0 2.88 3.04 4.64 7.2 4.64 11.36s-1.76 8.32-4.64 11.36c-3.04 2.88-7.2 4.64-11.36 4.64zM320 624c-4.16 0-8.32-1.76-11.36-4.64A16.8 16.8 0 0 1 304 608c0-4.32 1.76-8.32 4.64-11.36 6.08-5.92 16.64-5.92 22.72 0a16.16 16.16 0 0 1 0 22.72c-3.04 2.88-7.2 4.64-11.36 4.64zM384 624c-4.32 0-8.32-1.76-11.36-4.64-2.88-3.04-4.64-7.2-4.64-11.36s1.76-8.32 4.64-11.36c6.08-5.92 16.64-5.92 22.72 0 2.88 3.04 4.64 7.2 4.64 11.36s-1.76 8.32-4.64 11.36c-3.04 2.88-7.2 4.64-11.36 4.64zM256 624c-4.16 0-8.32-1.76-11.36-4.64A16.8 16.8 0 0 1 240 608c0-4.32 1.76-8.32 4.64-11.36 6.08-5.92 16.64-5.92 22.72 0 2.88 3.04 4.64 7.04 4.64 11.36 0 4.16-1.76 8.32-4.64 11.36-3.04 2.88-7.2 4.64-11.36 4.64zM192 624c-4.16 0-8.32-1.76-11.36-4.64-2.88-3.04-4.64-7.2-4.64-11.36s1.76-8.32 4.64-11.36c6.08-5.92 16.64-5.92 22.72 0 2.88 3.04 4.64 7.2 4.64 11.36s-1.76 8.32-4.64 11.36c-3.04 2.88-7.2 4.64-11.36 4.64zM832 624c-4.16 0-8.32-1.76-11.36-4.64A16.8 16.8 0 0 1 816 608c0-4.32 1.76-8.32 4.64-11.36 6.08-5.92 16.64-5.92 22.72 0a16.16 16.16 0 0 1 0 22.72c-3.04 2.88-7.2 4.64-11.36 4.64zM512 688c-4.32 0-8.32-1.76-11.36-4.64-2.88-3.04-4.64-7.2-4.64-11.36s1.76-8.32 4.64-11.36c5.92-5.92 16.64-5.92 22.72 0 2.88 3.04 4.64 7.04 4.64 11.36 0 4.16-1.76 8.32-4.64 11.36-3.04 2.88-7.2 4.64-11.36 4.64zM576 688c-4.16 0-8.32-1.76-11.36-4.64A16.8 16.8 0 0 1 560 672c0-4.32 1.76-8.32 4.64-11.36 5.92-5.92 16.8-5.92 22.72 0 2.88 3.04 4.64 7.2 4.64 11.36s-1.76 8.32-4.64 11.36c-3.04 2.88-7.2 4.64-11.36 4.64zM448 688c-4.16 0-8.32-1.76-11.36-4.64-2.88-3.04-4.64-7.2-4.64-11.36s1.76-8.32 4.64-11.36c5.92-5.92 16.64-5.92 22.72 0 2.88 3.04 4.64 7.2 4.64 11.36s-1.76 8.32-4.64 11.36c-3.04 2.88-7.2 4.64-11.36 4.64zM704 688c-4.32 0-8.32-1.76-11.36-4.64A16.8 16.8 0 0 1 688 672c0-4.32 1.76-8.32 4.64-11.36 5.92-5.92 16.64-5.92 22.72 0 2.88 3.04 4.64 7.2 4.64 11.36s-1.76 8.32-4.64 11.36c-3.04 2.88-7.2 4.64-11.36 4.64zM768 688c-4.16 0-8.32-1.76-11.36-4.64A16.8 16.8 0 0 1 752 672c0-4.32 1.76-8.32 4.64-11.36 5.92-5.92 16.8-5.92 22.72 0 2.88 3.04 4.64 7.2 4.64 11.36s-1.76 8.32-4.64 11.36c-3.04 2.88-7.04 4.64-11.36 4.64zM640 688c-4.16 0-8.32-1.76-11.36-4.64-2.88-3.04-4.64-7.2-4.64-11.36s1.76-8.32 4.64-11.36c5.92-5.92 16.8-5.92 22.72 0 2.88 3.04 4.64 7.2 4.64 11.36s-1.76 8.32-4.64 11.36c-3.04 2.88-7.2 4.64-11.36 4.64zM320 688c-4.16 0-8.32-1.76-11.36-4.64-3.04-3.04-4.64-7.2-4.64-11.36s1.6-8.32 4.64-11.36c6.08-5.92 16.8-5.92 22.72 0 2.88 3.04 4.64 7.2 4.64 11.36s-1.76 8.32-4.64 11.36c-3.04 2.88-7.2 4.64-11.36 4.64zM384 688c-4.16 0-8.32-1.76-11.36-4.64A16.8 16.8 0 0 1 368 672c0-4.32 1.76-8.32 4.64-11.36 5.92-5.92 16.8-5.92 22.72 0 2.88 3.04 4.64 7.2 4.64 11.36s-1.76 8.32-4.64 11.36c-3.04 2.88-7.2 4.64-11.36 4.64zM256 688c-4.16 0-8.32-1.76-11.36-4.64-2.88-3.04-4.64-7.2-4.64-11.36s1.76-8.32 4.64-11.36c6.08-5.92 16.8-5.92 22.72 0 2.88 3.04 4.64 7.2 4.64 11.36s-1.76 8.32-4.8 11.36c-2.88 2.88-6.88 4.64-11.2 4.64zM192 688c-4.16 0-8.32-1.76-11.36-4.64-2.88-3.04-4.64-7.2-4.64-11.36s1.76-8.32 4.64-11.36c5.92-5.92 16.8-5.92 22.72 0 2.88 3.04 4.64 7.2 4.64 11.36s-1.76 8.32-4.64 11.36c-3.04 2.88-7.2 4.64-11.36 4.64zM832 688c-4.16 0-8.32-1.76-11.36-4.64-2.88-3.04-4.64-7.2-4.64-11.36s1.76-8.32 4.64-11.36c5.92-5.92 16.8-5.92 22.72 0 2.88 3.04 4.64 7.04 4.64 11.36 0 4.16-1.76 8.32-4.64 11.36-3.04 2.88-7.2 4.64-11.36 4.64zM512 752c-4.16 0-8.32-1.76-11.36-4.64A16.8 16.8 0 0 1 496 736c0-4.32 1.76-8.32 4.64-11.36 5.92-5.92 16.64-5.92 22.72 0 2.88 3.04 4.64 7.2 4.64 11.36s-1.76 8.32-4.64 11.36c-3.04 2.88-7.2 4.64-11.36 4.64zM576 752c-4.16 0-8.32-1.76-11.36-4.64A16.8 16.8 0 0 1 560 736c0-4.32 1.76-8.32 4.64-11.36 5.92-5.92 16.8-5.92 22.72 0 2.88 3.04 4.64 7.2 4.64 11.36s-1.76 8.32-4.64 11.36c-3.04 2.88-7.2 4.64-11.36 4.64zM448 752c-4.16 0-8.32-1.76-11.36-4.64-2.88-3.04-4.64-7.2-4.64-11.36s1.76-8.32 4.64-11.36c5.92-5.92 16.8-5.92 22.72 0 2.88 3.04 4.64 7.2 4.64 11.36s-1.76 8.32-4.64 11.36c-3.04 2.88-7.2 4.64-11.36 4.64zM704 752c-4.16 0-8.32-1.76-11.36-4.64-2.88-3.04-4.64-7.2-4.64-11.36s1.76-8.32 4.64-11.36c6.08-5.92 16.8-5.92 22.72 0 2.88 3.04 4.64 7.2 4.64 11.36s-1.76 8.32-4.64 11.36c-3.04 2.88-7.2 4.64-11.36 4.64zM768 752c-4.32 0-8.32-1.76-11.36-4.64-2.88-3.04-4.64-7.2-4.64-11.36s1.76-8.32 4.64-11.36c5.92-5.92 16.64-5.92 22.72 0 2.88 3.04 4.64 7.2 4.64 11.36s-1.76 8.32-4.64 11.36c-3.04 2.88-7.2 4.64-11.36 4.64zM640 752c-4.16 0-8.32-1.76-11.36-4.64-2.88-3.04-4.64-7.2-4.64-11.36s1.76-8.32 4.64-11.36c6.08-5.92 16.64-5.92 22.72 0 2.88 3.04 4.64 7.2 4.64 11.36s-1.76 8.32-4.64 11.36c-3.04 2.88-7.2 4.64-11.36 4.64zM320 752c-4.16 0-8.32-1.76-11.36-4.64-2.88-3.04-4.64-7.2-4.64-11.36s1.76-8.32 4.64-11.36c5.92-5.92 16.64-5.92 22.72 0 2.88 3.04 4.64 7.2 4.64 11.36s-1.76 8.32-4.64 11.2c-3.04 3.04-7.2 4.8-11.36 4.8zM384 752c-4.16 0-8.32-1.76-11.36-4.64A16.8 16.8 0 0 1 368 736c0-4.32 1.76-8.32 4.64-11.36 5.92-5.92 16.64-5.92 22.72 0 2.88 3.04 4.64 7.2 4.64 11.36s-1.76 8.32-4.64 11.36c-3.04 2.88-7.2 4.64-11.36 4.64zM256 752c-4.16 0-8.32-1.76-11.36-4.64A16.8 16.8 0 0 1 240 736c0-4.32 1.76-8.32 4.64-11.36 5.92-5.92 16.8-5.92 22.72 0 2.88 3.04 4.64 7.2 4.64 11.36s-1.76 8.32-4.64 11.36c-3.04 2.88-7.2 4.64-11.36 4.64zM192 752c-4.16 0-8.32-1.76-11.36-4.64-3.04-3.04-4.64-7.2-4.64-11.36s1.6-8.32 4.64-11.36c6.08-5.92 16.8-5.92 22.72 0 2.88 3.04 4.64 7.2 4.64 11.36s-1.76 8.32-4.64 11.36c-3.04 2.88-7.2 4.64-11.36 4.64zM832 752c-4.16 0-8.32-1.76-11.36-4.64-2.88-3.04-4.64-7.2-4.64-11.36s1.76-8.32 4.64-11.36c6.08-5.92 16.64-5.92 22.72 0 2.88 3.04 4.64 7.2 4.64 11.36s-1.76 8.32-4.64 11.36c-3.04 2.88-7.2 4.64-11.36 4.64zM704 816c-4.32 0-8.32-1.76-11.36-4.64-2.88-3.04-4.64-7.2-4.64-11.36s1.76-8.32 4.64-11.36c6.08-5.92 16.64-5.92 22.72 0 2.88 3.04 4.64 7.04 4.64 11.36 0 4.16-1.76 8.32-4.64 11.36-3.04 2.88-7.2 4.64-11.36 4.64zM768 816c-4.16 0-8.32-1.76-11.36-4.64A16.8 16.8 0 0 1 752 800c0-4.32 1.76-8.32 4.64-11.36 6.08-5.92 16.64-5.92 22.72 0 2.88 3.04 4.64 7.04 4.64 11.36 0 4.16-1.76 8.32-4.64 11.36-3.04 2.88-7.2 4.64-11.36 4.64zM320 816c-4.16 0-8.32-1.76-11.36-4.64A16.8 16.8 0 0 1 304 800c0-4.32 1.76-8.32 4.64-11.36 6.08-5.92 16.64-5.92 22.72 0 2.88 3.04 4.64 7.2 4.64 11.36s-1.76 8.32-4.64 11.36c-3.04 2.88-7.2 4.64-11.36 4.64zM256 816c-4.32 0-8.32-1.76-11.36-4.64-2.88-3.04-4.64-7.2-4.64-11.36s1.76-8.32 4.64-11.36c6.08-5.92 16.64-5.92 22.72 0 2.88 3.04 4.64 7.04 4.64 11.36 0 4.16-1.76 8.32-4.64 11.36-3.04 2.88-7.2 4.64-11.36 4.64zM192 816a16.128 16.128 0 0 1-16-16c0-4.32 1.76-8.32 4.64-11.36 5.92-5.92 16.64-5.92 22.72 0 2.88 3.04 4.64 7.2 4.64 11.36s-1.76 8.32-4.64 11.36c-3.04 2.88-7.2 4.64-11.36 4.64zM832 816c-4.16 0-8.32-1.76-11.36-4.64-3.04-3.04-4.64-7.2-4.64-11.36s1.6-8.32 4.64-11.36c6.08-5.92 16.8-5.92 22.72 0 2.88 3.04 4.64 7.2 4.64 11.36s-1.76 8.32-4.64 11.36c-3.04 2.88-7.04 4.64-11.36 4.64zM656 1024H368a16 16 0 0 1-16-16v-112c0-26.464 21.536-48 48-48h224c26.464 0 48 21.536 48 48v112a16 16 0 0 1-16 16z m-272-32h256v-96a16 16 0 0 0-16-16H400a16 16 0 0 0-16 16v96z" fill="#4A8765" p-id="6816"></path><path d="M512 1024a16 16 0 0 1-16-16v-144a16 16 0 1 1 32 0v144a16 16 0 0 1-16 16zM640 816H384a16 16 0 1 1 0-32h256a16 16 0 1 1 0 32z" fill="#4A8765" p-id="6817"></path><path d="M208 192H144a16 16 0 0 1-16-16V80a16 16 0 0 1 16-16h64a16 16 0 0 1 16 16v96a16 16 0 0 1-16 16z m-48-32h32V96h-32v64z" fill="#4A8765" p-id="6818"></path><path d="M304 208a16 16 0 0 1-16-16V112h-16a16 16 0 1 1 0-32h32a16 16 0 0 1 16 16v96a16 16 0 0 1-16 16z" fill="#4A8765" p-id="6819"></path><path d="M432 128h-64a16 16 0 0 1-16-16V16a16 16 0 0 1 16-16h64a16 16 0 0 1 16 16v96a16 16 0 0 1-16 16z m-48-32h32V32h-32v64z" fill="#4A8765" p-id="6820"></path><path d="M528 208a16 16 0 0 1-16-16V112h-16a16 16 0 1 1 0-32h32a16 16 0 0 1 16 16v96a16 16 0 0 1-16 16z" fill="#4A8765" p-id="6821"></path><path d="M656 160h-64a16 16 0 0 1-16-16V48a16 16 0 0 1 16-16h64a16 16 0 0 1 16 16v96a16 16 0 0 1-16 16z m-48-32h32V64h-32v64z" fill="#4A8765" p-id="6822"></path><path d="M752 128a16 16 0 0 1-16-16V32h-16a16 16 0 1 1 0-32h32a16 16 0 0 1 16 16v96a16 16 0 0 1-16 16z" fill="#4A8765" p-id="6823"></path><path d="M880 192h-64a16 16 0 0 1-16-16V80a16 16 0 0 1 16-16h64a16 16 0 0 1 16 16v96a16 16 0 0 1-16 16z m-48-32h32V96h-32v64z" fill="#4A8765" p-id="6824"></path></svg>