<!DOCTYPE svg PUBLIC "-//W3C//DTD SVG 20010904//EN" "http://www.w3.org/TR/2001/REC-SVG-20010904/DTD/svg10.dtd">
<svg xmlns="http://www.w3.org/2000/svg" version="1.0" width="300.000000pt" height="300.000000pt" viewBox="0 0 300.000000 300.000000" preserveAspectRatio="xMidYMid meet">
<metadata>
Created by potrace 1.16, written by Peter Selinger 2001-2019
</metadata>
<g transform="translate(0.000000,300.000000) scale(0.100000,-0.100000)" stroke="none">
<path d="M446 2984 c-158 -38 -313 -162 -381 -305 -66 -140 -65 -111 -65 -1179 0 -813 3 -976 15 -1035 47 -220 220 -399 436 -450 96 -22 2002 -22 2098 0 162 39 317 162 386 306 66 140 65 110 65 1179 0 813 -3 976 -15 1035 -47 220 -220 399 -436 450 -93 22 -2012 21 -2103 -1z m1235 -500 c-12 -15 -21 -32 -21 -38 0 -17 102 -140 174 -210 81 -78 203 -173 305 -236 80 -49 270 -152 300 -162 11 -3 -4 -29 -54 -94 -38 -49 -77 -99 -88 -111 l-20 -22 -51 26 c-28 14 -85 48 -127 74 -42 27 -79 49 -82 49 -4 0 -7 -27 -7 -60 l0 -60 -510 0 -510 0 0 65 c0 36 -2 65 -4 65 -2 0 -62 -36 -133 -79 -99 -61 -131 -77 -140 -68 -19 19 -163 210 -163 216 0 3 30 22 67 41 98 50 295 175 393 249 103 78 295 268 335 333 l30 48 163 0 163 0 -20 -26z m689 -1124 l0 -120 -230 0 c-126 0 -230 -3 -230 -7 0 -6 176 -226 304 -378 42 -49 76 -92 76 -95 0 -3 -42 -30 -92 -60 -51 -30 -103 -60 -114 -67 -20 -13 -24 -9 -65 48 l-44 61 -200 -6 c-330 -10 -734 -35 -824 -52 -46 -8 -84 -14 -86 -12 -1 2 -29 50 -61 107 l-57 104 39 31 c95 74 304 294 304 320 0 3 -103 6 -230 6 l-230 0 0 120 0 120 870 0 870 0 0 -120z"/>
<path d="M1490 2232 c0 -16 -171 -190 -257 -262 -48 -41 -95 -80 -103 -87 -12 -11 51 -13 360 -13 l375 1 -75 66 c-90 80 -209 202 -253 260 -30 40 -47 53 -47 35z"/>
<path d="M1359 1153 c-40 -49 -98 -115 -129 -147 l-55 -59 304 7 c168 3 307 8 309 11 6 6 -35 67 -82 124 l-37 44 68 45 c37 24 72 49 78 53 5 5 -75 9 -187 9 l-196 0 -73 -87z"/>
</g>
</svg>
