<!DOCTYPE svg PUBLIC "-//W3C//DTD SVG 20010904//EN" "http://www.w3.org/TR/2001/REC-SVG-20010904/DTD/svg10.dtd">
<svg xmlns="http://www.w3.org/2000/svg" version="1.0" width="300.000000pt" height="300.000000pt" viewBox="0 0 300.000000 300.000000" preserveAspectRatio="xMidYMid meet">
<metadata>
Created by potrace 1.16, written by Peter Selinger 2001-2019
</metadata>
<g transform="translate(0.000000,300.000000) scale(0.100000,-0.100000)" stroke="none">
<path d="M440 2511 c-87 -27 -155 -87 -194 -170 -21 -46 -21 -54 -21 -841 l0 -795 28 -57 c30 -61 74 -105 140 -140 l42 -23 1065 0 1065 0 42 23 c66 35 110 79 140 140 l28 57 0 795 0 795 -28 57 c-30 61 -74 105 -140 140 l-42 23 -1050 2 c-577 1 -1061 -2 -1075 -6z m2116 -215 l34 -34 0 -762 0 -762 -34 -34 -34 -34 -1022 0 -1022 0 -34 34 -34 34 0 762 0 762 34 34 34 34 1022 0 1022 0 34 -34z"/>
<path d="M688 2111 c-41 -20 -62 -61 -53 -102 6 -25 39 -56 166 -157 l159 -125 0 -43 0 -43 -184 -3 c-178 -3 -185 -4 -209 -26 -14 -13 -28 -35 -31 -48 -9 -33 19 -88 50 -103 16 -7 90 -11 199 -11 l175 0 0 -80 0 -80 -185 0 c-183 0 -186 0 -210 -24 -35 -35 -41 -69 -18 -108 28 -48 65 -57 250 -57 l161 -1 4 -111 c3 -107 4 -112 31 -135 42 -36 98 -33 131 7 24 29 26 37 26 135 l0 104 170 0 c190 0 218 7 240 59 18 44 4 89 -33 112 -28 17 -52 19 -204 19 l-173 0 0 79 0 80 184 3 c162 3 186 5 204 22 28 24 37 70 22 107 -22 52 -50 59 -240 59 l-170 0 0 44 0 44 145 116 c80 65 152 127 160 139 39 55 -8 139 -78 139 -32 0 -55 -14 -178 -113 -77 -63 -142 -113 -145 -113 -3 1 -68 51 -145 110 -76 60 -150 112 -164 115 -14 4 -37 0 -57 -10z"/>
<path d="M2015 2121 c-62 -18 -75 -47 -75 -165 l0 -96 -126 0 c-125 0 -126 0 -155 -29 -31 -31 -36 -64 -18 -105 20 -43 65 -56 188 -56 l111 0 0 -96 c0 -92 1 -97 29 -125 20 -20 39 -29 61 -29 73 0 100 46 100 170 l0 80 109 0 c125 0 166 11 186 51 23 43 18 77 -14 110 -29 29 -30 29 -154 29 l-125 0 -4 104 c-2 84 -7 108 -21 124 -23 26 -65 40 -92 33z"/>
<path d="M1714 1123 c-67 -13 -93 -114 -41 -159 l28 -24 323 0 323 0 27 26 c28 29 35 79 15 116 -23 43 -60 48 -366 47 -158 -1 -298 -4 -309 -6z"/>
</g>
</svg>
