<!DOCTYPE svg PUBLIC "-//W3C//DTD SVG 20010904//EN" "http://www.w3.org/TR/2001/REC-SVG-20010904/DTD/svg10.dtd">
<svg xmlns="http://www.w3.org/2000/svg" version="1.0" width="300.000000pt" height="300.000000pt" viewBox="0 0 300.000000 300.000000" preserveAspectRatio="xMidYMid meet">
<metadata>
Created by potrace 1.16, written by Peter Selinger 2001-2019
</metadata>
<g transform="translate(0.000000,300.000000) scale(0.100000,-0.100000)" stroke="none">
<path d="M326 2894 l-26 -27 0 -1341 c0 -1490 -6 -1375 68 -1396 51 -14 2203 -14 2254 0 73 21 68 -56 68 1047 l0 992 -344 3 -344 3 -26 24 -26 24 0 349 0 348 -799 0 -798 0 -27 -26z m1114 -1114 l0 -190 -305 0 -305 0 0 190 0 190 305 0 305 0 0 -190z m730 -140 l0 -330 -305 0 -305 0 0 330 0 330 305 0 305 0 0 -330z m-730 -475 l0 -335 -305 0 -305 0 0 335 0 335 305 0 305 0 0 -335z m730 -145 l0 -190 -305 0 -305 0 0 190 0 190 305 0 305 0 0 -190z"/>
<path d="M2084 2683 c4 -131 12 -254 17 -275 11 -44 66 -95 111 -103 18 -3 134 -5 258 -3 l225 3 -1 53 c-1 39 -9 63 -29 94 -62 94 -376 379 -475 431 -25 14 -60 27 -79 31 l-34 6 7 -237z"/>
</g>
</svg>
