<!DOCTYPE svg PUBLIC "-//W3C//DTD SVG 20010904//EN" "http://www.w3.org/TR/2001/REC-SVG-20010904/DTD/svg10.dtd">
<svg xmlns="http://www.w3.org/2000/svg" version="1.0" width="300.000000pt" height="300.000000pt" viewBox="0 0 300.000000 300.000000" preserveAspectRatio="xMidYMid meet">
<metadata>
Created by potrace 1.16, written by Peter Selinger 2001-2019
</metadata>
<g transform="translate(0.000000,300.000000) scale(0.100000,-0.100000)" stroke="none">
<path d="M681 2747 c-14 -6 -34 -27 -44 -45 -37 -63 4 -143 81 -156 66 -11 1534 -7 1574 4 49 14 78 52 78 102 0 32 -7 47 -34 74 l-34 34 -798 0 c-615 0 -805 -3 -823 -13z"/>
<path d="M325 2290 c-11 -4 -33 -22 -50 -40 l-30 -31 -3 -274 -3 -273 56 -53 c39 -37 68 -77 97 -136 38 -76 41 -90 46 -182 4 -82 1 -111 -16 -167 -26 -83 -88 -181 -142 -224 l-40 -32 0 -266 c0 -247 2 -269 20 -299 10 -18 31 -40 47 -50 26 -17 86 -18 1189 -18 1159 0 1163 0 1190 21 69 51 69 49 72 333 l3 258 -34 22 c-69 43 -139 135 -175 232 -71 192 -5 419 160 544 l49 38 -3 256 c-3 249 -4 257 -26 289 -48 66 36 62 -1234 61 -634 0 -1162 -4 -1173 -9z m992 -513 c114 -114 123 -126 123 -161 0 -20 -5 -46 -10 -57 -10 -18 -7 -19 70 -19 l80 0 -16 25 c-32 49 -15 81 119 213 116 115 126 122 163 122 60 -1 94 -37 94 -101 0 -27 -16 -48 -112 -146 l-112 -113 78 0 c72 0 79 -2 107 -29 40 -41 40 -91 0 -132 l-29 -29 -141 0 -141 0 0 -70 0 -70 131 0 c72 0 139 -5 150 -10 53 -29 61 -121 12 -160 -23 -18 -40 -20 -159 -20 l-134 0 0 -156 0 -156 -35 -35 c-31 -31 -40 -35 -71 -30 -78 13 -94 52 -94 237 l0 140 -133 0 c-149 0 -168 6 -187 65 -9 28 -8 40 5 68 23 49 49 57 190 57 l125 0 0 70 0 70 -120 0 c-135 0 -162 8 -185 56 -19 40 -12 74 22 109 23 22 34 25 97 25 l71 0 -102 103 c-115 116 -127 136 -119 183 9 45 48 74 99 74 39 0 47 -6 164 -123z"/>
</g>
</svg>
