<!DOCTYPE svg PUBLIC "-//W3C//DTD SVG 20010904//EN" "http://www.w3.org/TR/2001/REC-SVG-20010904/DTD/svg10.dtd">
<svg xmlns="http://www.w3.org/2000/svg" version="1.0" width="300.000000pt" height="300.000000pt" viewBox="0 0 300.000000 300.000000" preserveAspectRatio="xMidYMid meet">
<metadata>
Created by potrace 1.16, written by Peter Selinger 2001-2019
</metadata>
<g transform="translate(0.000000,300.000000) scale(0.100000,-0.100000)" stroke="none">
<path d="M1421 2988 c-19 -5 -318 -154 -665 -331 -519 -266 -638 -330 -676 -367 -83 -81 -80 -54 -80 -790 0 -736 -3 -709 80 -790 38 -37 156 -101 679 -368 424 -217 651 -327 687 -335 40 -8 68 -8 108 0 36 8 262 118 687 335 702 358 712 365 743 469 24 79 24 1299 0 1378 -31 104 -41 111 -739 467 -347 177 -645 326 -664 333 -40 13 -113 13 -160 -1z m240 -814 l24 -26 3 -546 c2 -399 -1 -554 -9 -575 -19 -46 -55 -57 -179 -57 -124 0 -160 11 -179 57 -8 21 -11 176 -9 575 l3 546 24 26 c24 25 27 26 161 26 134 0 137 -1 161 -26z m560 -353 l29 -29 0 -382 0 -382 -29 -29 c-29 -29 -30 -29 -151 -29 -126 0 -171 11 -184 45 -3 9 -6 189 -6 399 0 291 3 386 13 398 24 31 53 37 175 38 123 0 124 0 153 -29z m-1127 -260 l26 -24 0 -253 c0 -139 -3 -260 -6 -269 -13 -34 -58 -45 -184 -45 -121 0 -122 0 -151 29 l-29 29 0 247 c0 157 4 254 11 266 20 39 65 49 191 47 108 -3 118 -5 142 -27z m1338 -706 c8 -19 8 -28 -2 -40 -11 -13 -116 -15 -934 -13 l-921 3 -3 29 c-2 16 2 32 10 37 7 5 424 9 926 9 l912 0 12 -25z"/>
</g>
</svg>
