<!DOCTYPE svg PUBLIC "-//W3C//DTD SVG 20010904//EN" "http://www.w3.org/TR/2001/REC-SVG-20010904/DTD/svg10.dtd">
<svg xmlns="http://www.w3.org/2000/svg" version="1.0" width="300.000000pt" height="300.000000pt" viewBox="0 0 300.000000 300.000000" preserveAspectRatio="xMidYMid meet">
<metadata>
Created by potrace 1.16, written by Peter Selinger 2001-2019
</metadata>
<g transform="translate(0.000000,300.000000) scale(0.100000,-0.100000)" stroke="none">
<path d="M413 2991 c-53 -13 -118 -58 -149 -102 -27 -39 -29 -50 -32 -146 l-4 -103 54 0 c67 0 116 -24 143 -70 16 -28 21 -57 23 -150 5 -141 -6 -188 -53 -229 -32 -28 -42 -31 -100 -31 l-65 0 0 -205 0 -205 58 0 c64 0 110 -22 139 -67 15 -23 18 -49 18 -168 0 -123 -3 -144 -20 -175 -27 -46 -76 -70 -142 -70 l-53 0 0 -200 0 -200 47 0 c60 0 123 -31 148 -72 17 -29 20 -51 20 -173 0 -122 -3 -144 -20 -173 -25 -42 -88 -72 -149 -72 l-48 0 4 -114 c3 -109 4 -116 34 -157 17 -24 55 -56 85 -73 l54 -31 1200 0 c1138 0 1202 1 1247 18 60 23 122 91 137 152 8 31 11 394 11 1244 l0 1201 -1225 0 c-1342 0 -1277 -3 -1309 59 -27 51 -21 98 18 137 l34 34 1231 0 c680 0 1231 4 1231 9 0 20 -83 100 -122 117 -41 18 -95 19 -1228 21 -652 0 -1199 -2 -1217 -6z m1402 -906 c174 -37 350 -157 454 -308 253 -369 126 -884 -268 -1091 -121 -63 -199 -81 -351 -81 -114 0 -147 4 -210 23 -209 66 -368 199 -461 387 -151 306 -82 669 172 898 74 68 236 152 329 172 87 18 249 18 335 0z"/>
<path d="M1324 1695 c-23 -35 -14 -51 86 -157 l82 -88 -90 0 c-98 0 -122 -12 -122 -63 0 -47 30 -57 177 -57 l133 0 0 -65 0 -65 -138 0 c-122 0 -141 -2 -155 -18 -24 -26 -21 -68 5 -86 18 -13 51 -16 155 -16 l133 0 0 -83 c0 -92 13 -117 62 -117 44 0 58 28 58 118 l0 82 138 0 c122 0 141 2 155 18 22 24 21 65 -1 85 -15 14 -42 17 -155 17 l-137 0 0 65 0 65 133 0 c149 0 177 9 177 59 0 49 -25 61 -129 61 l-93 0 73 80 c118 129 116 126 98 158 -10 18 -24 28 -44 30 -26 2 -45 -12 -150 -118 -66 -66 -124 -120 -130 -120 -6 0 -64 54 -130 120 -131 131 -158 145 -191 95z"/>
<path d="M29 2534 c-22 -24 -24 -33 -24 -136 l0 -110 33 -29 c32 -28 34 -29 147 -29 113 0 115 1 147 29 l33 29 0 110 c0 103 -2 112 -24 136 -24 25 -28 26 -156 26 -128 0 -132 -1 -156 -26z"/>
<path d="M53 1668 c-40 -19 -55 -70 -51 -168 2 -71 7 -94 24 -117 l21 -28 135 -3 c133 -3 134 -2 159 24 21 22 24 37 28 111 4 107 -10 158 -49 178 -34 18 -232 20 -267 3z"/>
<path d="M47 779 c-30 -18 -47 -73 -47 -152 0 -148 22 -167 195 -167 109 0 117 1 140 24 30 30 39 77 33 177 -4 65 -9 84 -28 104 -23 24 -28 25 -149 25 -71 0 -134 -5 -144 -11z"/>
</g>
</svg>
