<!DOCTYPE svg PUBLIC "-//W3C//DTD SVG 20010904//EN" "http://www.w3.org/TR/2001/REC-SVG-20010904/DTD/svg10.dtd">
<svg xmlns="http://www.w3.org/2000/svg" version="1.0" width="300.000000pt" height="300.000000pt" viewBox="0 0 300.000000 300.000000" preserveAspectRatio="xMidYMid meet">
<metadata>
Created by potrace 1.16, written by Peter Selinger 2001-2019
</metadata>
<g transform="translate(0.000000,300.000000) scale(0.100000,-0.100000)" stroke="none">
<path d="M450 2521 c-80 -25 -141 -79 -179 -161 l-26 -55 0 -560 c0 -432 3 -570 13 -605 22 -75 72 -134 144 -169 l63 -31 830 2 830 3 41 22 c23 12 60 43 82 68 73 83 72 70 72 700 0 645 3 624 -84 711 -90 89 -35 84 -955 83 -443 0 -817 -4 -831 -8z m1654 -207 l26 -27 0 -178 0 -179 -685 0 c-470 0 -691 -3 -708 -11 -26 -12 -57 -57 -57 -84 0 -28 28 -71 55 -83 19 -9 201 -12 710 -12 l685 0 0 -280 0 -281 -25 -24 -24 -25 -791 0 c-548 0 -798 3 -812 11 -45 24 -48 52 -48 489 l0 410 753 0 c477 0 765 4 788 10 69 19 90 93 43 149 l-26 31 -779 0 c-529 0 -779 3 -779 10 0 23 29 79 47 89 12 7 265 10 809 11 l791 0 27 -26z"/>
<path d="M1533 1606 c-16 -14 -55 -79 -92 -154 -69 -142 -72 -162 -26 -208 24 -24 26 -24 228 -24 194 0 206 1 232 22 27 21 155 265 155 295 0 25 -32 71 -57 82 -15 7 -100 11 -218 11 -189 0 -194 -1 -222 -24z m241 -181 c-5 -11 -23 -15 -75 -15 -57 0 -67 3 -63 15 5 11 23 15 75 15 57 0 67 -3 63 -15z"/>
<path d="M2428 2045 c-33 -18 -52 -72 -39 -107 13 -35 58 -68 93 -68 37 0 75 -37 83 -81 3 -19 5 -255 3 -526 l-3 -491 -24 -26 -24 -26 -793 0 -792 0 -26 31 c-15 17 -26 43 -26 59 0 40 -37 79 -81 86 -31 5 -42 1 -70 -24 -31 -27 -34 -35 -33 -80 3 -94 56 -178 144 -230 l45 -27 819 -3 c910 -3 874 -5 954 64 22 19 53 60 69 92 l28 57 3 507 c3 514 0 583 -34 653 -52 110 -212 185 -296 140z"/>
</g>
</svg>
