<!DOCTYPE svg PUBLIC "-//W3C//DTD SVG 20010904//EN" "http://www.w3.org/TR/2001/REC-SVG-20010904/DTD/svg10.dtd">
<svg xmlns="http://www.w3.org/2000/svg" version="1.0" width="300.000000pt" height="300.000000pt" viewBox="0 0 300.000000 300.000000" preserveAspectRatio="xMidYMid meet">
<metadata>
Created by potrace 1.16, written by Peter Selinger 2001-2019
</metadata>
<g transform="translate(0.000000,300.000000) scale(0.100000,-0.100000)" stroke="none">
<path d="M1790 2503 c-33 -12 -40 -36 -40 -140 l0 -103 -258 0 c-297 0 -302 -1 -302 -73 0 -85 9 -87 309 -87 l251 0 0 -70 0 -70 -197 -1 c-226 0 -257 -7 -288 -59 -20 -34 -20 -51 -23 -675 -2 -456 1 -647 9 -667 22 -54 113 -56 138 -2 7 16 11 107 11 264 l0 240 175 0 175 0 0 -265 c0 -252 1 -266 20 -285 28 -28 90 -27 116 1 17 19 19 42 22 285 l3 264 175 0 175 0 -3 -176 c-3 -160 -5 -177 -22 -190 -27 -19 -73 -18 -147 6 -78 24 -103 18 -124 -27 -16 -33 -16 -39 -2 -69 24 -48 105 -77 222 -78 113 -1 158 19 193 85 39 77 43 146 40 709 -3 583 -2 570 -61 614 -26 19 -44 21 -238 24 l-209 3 0 69 0 69 271 3 271 3 20 25 c15 19 19 34 15 64 -8 54 -27 66 -111 66 l-71 1 -53 78 c-110 165 -158 199 -210 151 -47 -44 -41 -75 34 -167 24 -30 44 -56 44 -58 0 -3 -47 -5 -104 -5 l-104 0 -4 106 c-3 97 -6 108 -27 125 -22 18 -60 23 -91 12z m-40 -808 l0 -105 -175 0 -175 0 0 105 0 105 175 0 175 0 0 -105z m508 -2 l3 -103 -176 0 -175 0 0 105 0 105 173 -2 172 -3 3 -102z m-508 -368 l0 -115 -175 0 -175 0 0 115 0 115 175 0 175 0 0 -115z m510 0 l0 -115 -175 0 -175 0 0 115 0 115 175 0 175 0 0 -115z"/>
<path d="M804 2479 c-10 -11 -28 -59 -39 -107 l-22 -87 -97 -5 c-88 -4 -100 -7 -117 -29 -24 -30 -24 -72 0 -102 16 -20 30 -24 95 -27 l76 -4 -6 -27 c-10 -38 -96 -299 -138 -416 -73 -205 -40 -255 174 -255 l110 0 0 -203 0 -204 -102 -22 c-190 -42 -208 -51 -208 -111 0 -77 45 -87 213 -46 l97 23 0 -163 c0 -151 2 -166 20 -184 24 -24 77 -27 106 -6 17 13 19 31 24 206 l5 191 95 39 c107 45 135 69 126 114 -14 70 -58 82 -158 41 -34 -14 -63 -25 -65 -25 -2 0 -3 79 -3 175 l0 175 78 0 c93 0 112 13 112 78 0 57 -24 72 -117 72 l-72 0 -3 190 c-3 164 -5 192 -20 207 -26 26 -86 22 -109 -6 -17 -21 -19 -42 -19 -207 l0 -184 -75 0 c-90 0 -98 9 -70 79 33 84 131 375 143 423 l12 46 139 4 c160 3 181 12 181 78 0 68 -12 75 -153 78 l-125 4 14 51 c21 80 18 133 -8 151 -31 22 -71 20 -94 -5z"/>
</g>
</svg>
