<!DOCTYPE svg PUBLIC "-//W3C//DTD SVG 20010904//EN" "http://www.w3.org/TR/2001/REC-SVG-20010904/DTD/svg10.dtd">
<svg xmlns="http://www.w3.org/2000/svg" version="1.0" width="300.000000pt" height="300.000000pt" viewBox="0 0 300.000000 300.000000" preserveAspectRatio="xMidYMid meet">
<metadata>
Created by potrace 1.16, written by Peter Selinger 2001-2019
</metadata>
<g transform="translate(0.000000,300.000000) scale(0.100000,-0.100000)" stroke="none">
<path d="M866 2645 c-53 -19 -106 -63 -130 -111 -19 -35 -21 -59 -24 -261 l-3 -223 -102 0 c-77 0 -112 -5 -142 -19 -57 -25 -102 -81 -110 -133 -3 -24 -5 -347 -3 -718 3 -669 3 -675 25 -715 27 -51 57 -79 113 -104 44 -20 60 -21 1014 -21 697 0 979 3 1007 11 55 17 108 65 135 123 l24 51 0 688 c0 751 2 725 -59 782 -45 43 -83 53 -198 54 l-102 1 -3 229 -3 229 -30 44 c-35 49 -82 83 -134 98 -22 6 -263 10 -636 10 -484 -1 -607 -4 -639 -15z m1265 -164 l24 -19 3 -676 2 -676 -650 0 -650 0 2 676 3 676 24 19 c22 18 47 19 621 19 574 0 599 -1 621 -19z m-1421 -981 l0 -390 -100 0 -100 0 0 390 0 390 100 0 100 0 0 -390z m1800 0 l0 -390 -100 0 -100 0 0 390 0 390 100 0 100 0 0 -390z m0 -754 c0 -186 -2 -206 -19 -227 l-19 -24 -929 -3 c-510 -2 -943 0 -961 3 -18 3 -42 15 -53 26 -18 18 -19 34 -19 224 l0 205 1000 0 1000 0 0 -204z"/>
<path d="M1223 2330 c-27 -11 -43 -40 -43 -77 0 -21 19 -47 87 -115 l88 -88 -102 0 c-92 0 -104 -2 -129 -23 -37 -33 -37 -81 0 -114 26 -22 35 -23 167 -23 l139 0 0 -74 0 -75 -145 -3 c-133 -3 -146 -5 -166 -25 -30 -29 -29 -76 1 -108 23 -24 27 -25 167 -25 l143 0 0 -154 c0 -140 2 -156 21 -180 25 -32 75 -35 110 -7 23 19 24 25 27 180 l3 161 139 0 c131 0 140 1 166 23 34 29 36 80 4 111 -19 19 -34 21 -165 24 l-145 3 0 75 0 74 139 0 c125 0 141 2 165 21 37 29 37 89 0 118 -23 18 -41 21 -127 21 l-101 0 87 89 c87 88 98 110 81 156 -9 23 -61 47 -87 39 -12 -4 -70 -54 -130 -112 l-107 -106 -108 106 c-107 107 -137 125 -179 108z"/>
</g>
</svg>
