<!DOCTYPE svg PUBLIC "-//W3C//DTD SVG 20010904//EN" "http://www.w3.org/TR/2001/REC-SVG-20010904/DTD/svg10.dtd">
<svg xmlns="http://www.w3.org/2000/svg" version="1.0" width="300.000000pt" height="300.000000pt" viewBox="0 0 300.000000 300.000000" preserveAspectRatio="xMidYMid meet">
<metadata>
Created by potrace 1.16, written by Peter Selinger 2001-2019
</metadata>
<g transform="translate(0.000000,300.000000) scale(0.100000,-0.100000)" stroke="none">
<path d="M690 2792 c-19 -9 -45 -32 -57 -51 -22 -32 -23 -44 -23 -207 l0 -174 -147 0 c-178 0 -218 -14 -252 -84 -21 -42 -21 -53 -21 -1002 0 -928 1 -960 20 -1002 15 -33 29 -47 62 -62 42 -19 76 -20 1228 -20 1152 0 1186 1 1228 20 33 15 47 29 62 62 19 42 20 74 20 1002 0 949 0 960 -21 1002 -34 70 -74 84 -252 84 l-147 0 0 174 c0 163 -1 175 -23 207 -48 73 -3 69 -867 69 -718 0 -778 -1 -810 -18z m1511 -181 c18 -22 19 -50 19 -762 l0 -739 -720 0 -720 0 0 743 c0 696 1 745 18 759 9 9 24 18 32 21 8 3 316 5 683 4 l669 -2 19 -24z m-1591 -966 l0 -536 -122 3 -123 3 0 516 c0 423 2 519 14 532 11 14 33 17 122 17 l109 0 0 -535z m2011 518 c12 -13 14 -109 14 -532 l0 -516 -122 -3 -123 -3 0 536 0 535 109 0 c89 0 111 -3 122 -17z m14 -1495 c0 -243 -2 -269 -18 -285 -17 -17 -75 -18 -1117 -18 -1042 0 -1100 1 -1117 18 -16 16 -18 44 -21 273 -2 141 -1 263 2 270 5 12 178 14 1138 12 l1133 -3 0 -267z"/>
<path d="M1054 2530 c-30 -12 -54 -49 -54 -84 0 -25 26 -56 167 -198 l167 -168 -188 0 c-189 0 -217 -4 -243 -39 -16 -21 -16 -82 1 -103 24 -33 65 -38 287 -38 l219 0 0 -95 0 -95 -234 0 c-221 0 -235 -1 -260 -21 -36 -28 -37 -89 -1 -124 l24 -25 235 0 234 0 4 -141 c3 -140 3 -141 31 -165 36 -31 78 -31 114 0 28 24 28 25 31 165 l4 141 234 0 235 0 24 25 c36 35 35 96 -1 124 -25 20 -39 21 -260 21 l-234 0 0 95 0 95 219 0 c222 0 263 5 287 38 17 21 17 82 1 103 -26 35 -54 39 -243 39 l-188 0 167 168 c147 149 167 172 167 201 0 38 -46 91 -80 91 -38 0 -63 -20 -242 -198 l-178 -177 -177 177 c-206 204 -215 210 -269 188z"/>
</g>
</svg>
