<!DOCTYPE svg PUBLIC "-//W3C//DTD SVG 20010904//EN" "http://www.w3.org/TR/2001/REC-SVG-20010904/DTD/svg10.dtd">
<svg xmlns="http://www.w3.org/2000/svg" version="1.0" width="300.000000pt" height="300.000000pt" viewBox="0 0 300.000000 300.000000" preserveAspectRatio="xMidYMid meet">
<metadata>
Created by potrace 1.16, written by Peter Selinger 2001-2019
</metadata>
<g transform="translate(0.000000,300.000000) scale(0.100000,-0.100000)" stroke="none">
<path d="M442 2733 c-72 -35 -67 52 -67 -1233 0 -1070 1 -1157 17 -1186 37 -68 -31 -64 1175 -64 1061 0 1089 1 1120 20 67 41 63 -41 63 1232 0 1126 -1 1154 -20 1185 -50 82 -160 82 -210 0 -19 -31 -20 -58 -20 -1109 l0 -1078 -685 0 -685 0 0 1000 0 1000 138 0 c118 0 141 3 169 20 82 50 82 160 0 210 -31 19 -53 20 -497 20 -409 0 -469 -2 -498 -17z m428 -1233 l0 -1000 -120 0 -120 0 0 1000 0 1000 120 0 120 0 0 -1000z"/>
<path d="M1813 2730 c-65 -39 -63 -24 -63 -615 0 -522 0 -535 20 -555 28 -28 49 -25 145 22 l85 42 85 -42 c96 -47 117 -50 145 -22 20 20 20 33 20 558 0 515 -1 538 -20 569 -33 56 -61 63 -232 63 -134 0 -157 -2 -185 -20z"/>
</g>
</svg>
