<!DOCTYPE svg PUBLIC "-//W3C//DTD SVG 20010904//EN" "http://www.w3.org/TR/2001/REC-SVG-20010904/DTD/svg10.dtd">
<svg xmlns="http://www.w3.org/2000/svg" version="1.0" width="300.000000pt" height="291.000000pt" viewBox="0 0 300.000000 291.000000" preserveAspectRatio="xMidYMid meet">
<metadata>
Created by potrace 1.16, written by Peter Selinger 2001-2019
</metadata>
<g transform="translate(0.000000,291.000000) scale(0.100000,-0.100000)" stroke="none">
<path d="M180 2901 c-69 -21 -121 -65 -156 -131 -18 -34 -19 -84 -19 -1265 l0 -1230 22 -40 c25 -47 64 -85 113 -111 33 -18 84 -19 1030 -24 l995 -5 75 -38 c201 -100 438 -59 601 104 191 190 212 480 49 695 l-40 53 -2 913 c-3 869 -4 915 -22 948 -26 49 -64 88 -111 113 l-40 22 -1235 2 c-679 1 -1246 -2 -1260 -6z m2505 -94 c17 -11 42 -35 55 -55 l25 -36 3 -868 c1 -477 0 -868 -3 -868 -3 0 -27 11 -53 24 -168 85 -376 76 -528 -22 -56 -37 -164 -143 -164 -163 0 -5 -233 -10 -545 -11 -570 -3 -565 -3 -565 -43 0 -40 -3 -40 538 -43 l519 -3 -14 -52 c-38 -144 -3 -329 83 -444 13 -17 24 -34 24 -38 0 -3 -420 -4 -932 -3 l-933 3 -35 22 c-19 12 -44 37 -55 55 -20 33 -20 51 -20 1243 l0 1210 22 35 c24 39 53 60 98 71 17 4 574 6 1240 6 1157 -2 1211 -3 1240 -20z m-86 -1846 c213 -66 350 -287 312 -502 -62 -346 -473 -491 -740 -262 -216 185 -195 549 42 706 114 76 259 98 386 58z"/>
<path d="M519 2331 c-22 -17 -24 -29 -27 -113 -3 -83 -1 -96 18 -121 21 -26 24 -27 125 -27 100 0 104 1 124 26 18 23 21 41 21 116 0 81 -2 91 -25 113 -22 23 -32 25 -118 25 -78 0 -99 -3 -118 -19z m181 -121 l0 -60 -60 0 -60 0 0 60 0 60 60 0 60 0 0 -60z"/>
<path d="M922 2248 c-16 -16 -15 -43 2 -57 10 -8 227 -10 801 -9 738 3 789 4 799 20 8 13 8 23 0 35 -10 17 -61 18 -801 21 -605 2 -792 -1 -801 -10z"/>
<path d="M519 1601 c-22 -17 -24 -29 -27 -113 -3 -83 -1 -96 18 -121 21 -26 24 -27 123 -27 56 0 107 4 113 8 24 16 34 55 34 137 0 78 -2 88 -25 110 -22 23 -32 25 -118 25 -78 0 -99 -3 -118 -19z m181 -121 l0 -60 -60 0 -60 0 0 60 0 60 60 0 60 0 0 -60z"/>
<path d="M922 1518 c-16 -16 -15 -43 2 -57 10 -8 229 -10 807 -9 l794 3 3 23 c8 54 44 52 -807 52 -599 0 -790 -3 -799 -12z"/>
<path d="M534 889 c-32 -16 -44 -52 -44 -134 0 -129 24 -149 165 -144 116 5 125 15 125 144 0 131 -8 139 -132 142 -52 2 -102 -2 -114 -8z m166 -134 l0 -55 -60 0 -60 0 0 55 0 55 60 0 60 0 0 -55z"/>
<path d="M2294 756 c-3 -8 8 -41 25 -75 34 -67 38 -91 16 -91 -10 0 -15 -10 -15 -30 0 -28 2 -30 40 -30 30 0 42 -5 50 -21 18 -32 5 -47 -42 -51 -40 -3 -43 -5 -43 -33 0 -28 3 -30 45 -35 44 -5 45 -6 50 -45 5 -37 8 -40 39 -43 39 -4 51 9 51 56 0 30 2 32 38 32 48 0 65 12 60 41 -3 21 -9 24 -50 27 -43 3 -48 6 -48 26 0 30 17 44 60 48 28 2 36 8 38 26 3 17 -2 25 -17 29 -28 7 -26 23 10 94 34 69 32 89 -8 89 -39 0 -43 -5 -85 -92 -21 -43 -43 -78 -48 -78 -6 0 -29 38 -50 85 -38 84 -40 85 -75 85 -21 0 -38 -6 -41 -14z"/>
</g>
</svg>
