<!DOCTYPE svg PUBLIC "-//W3C//DTD SVG 20010904//EN" "http://www.w3.org/TR/2001/REC-SVG-20010904/DTD/svg10.dtd">
<svg xmlns="http://www.w3.org/2000/svg" version="1.0" width="300.000000pt" height="300.000000pt" viewBox="0 0 300.000000 300.000000" preserveAspectRatio="xMidYMid meet">
<metadata>
Created by potrace 1.16, written by Peter Selinger 2001-2019
</metadata>
<g transform="translate(0.000000,300.000000) scale(0.100000,-0.100000)" stroke="none">
<path d="M1906 2840 c-26 -10 -219 -108 -428 -217 l-380 -198 673 -3 c370 -1 674 0 677 2 2 3 -36 80 -84 171 -77 145 -95 171 -137 202 -26 19 -68 41 -94 49 -65 20 -168 17 -227 -6z"/>
<path d="M338 2276 c-84 -23 -157 -89 -187 -169 -16 -42 -15 -1596 1 -1649 16 -53 86 -130 145 -159 l48 -24 1139 -3 c1267 -3 1203 -6 1285 65 24 20 54 59 67 87 23 50 24 57 24 354 l0 302 -362 0 c-200 0 -381 5 -402 10 -98 22 -172 117 -183 234 -10 114 47 214 152 262 50 24 53 24 423 24 l372 0 0 238 c0 210 -3 242 -19 278 -25 54 -83 111 -140 138 -46 21 -47 21 -1181 23 -895 1 -1145 -1 -1182 -11z"/>
<path d="M2124 1470 c-41 -17 -74 -68 -74 -117 0 -149 184 -194 253 -62 44 85 -21 190 -118 188 -22 0 -49 -4 -61 -9z"/>
</g>
</svg>
