<!DOCTYPE svg PUBLIC "-//W3C//DTD SVG 20010904//EN" "http://www.w3.org/TR/2001/REC-SVG-20010904/DTD/svg10.dtd">
<svg xmlns="http://www.w3.org/2000/svg" version="1.0" width="300.000000pt" height="300.000000pt" viewBox="0 0 300.000000 300.000000" preserveAspectRatio="xMidYMid meet">
<metadata>
Created by potrace 1.16, written by Peter Selinger 2001-2019
</metadata>
<g transform="translate(0.000000,300.000000) scale(0.100000,-0.100000)" stroke="none">
<path d="M970 2225 l0 -775 290 0 290 0 0 -95 0 -95 -340 0 -340 0 0 265 0 265 -95 0 -95 0 0 -50 0 -50 50 0 50 0 0 -215 0 -215 -320 0 -320 0 0 215 0 215 50 0 50 0 0 50 0 50 -95 0 -95 0 0 -265 0 -265 -25 0 -25 0 0 -630 0 -630 1500 0 1500 0 0 630 0 630 -315 0 -315 0 0 95 0 95 290 0 290 0 0 775 0 775 -990 0 -990 0 0 -775z m1890 0 l0 -675 -900 0 -900 0 0 675 0 675 900 0 900 0 0 -675z m-580 -870 l0 -95 -320 0 -320 0 0 95 0 95 320 0 320 0 0 -95z m620 -725 l0 -530 -1400 0 -1400 0 0 530 0 530 1400 0 1400 0 0 -530z"/>
<path d="M1167 2803 c-4 -3 -7 -264 -7 -580 l0 -573 435 0 435 0 0 580 0 580 -428 0 c-236 0 -432 -3 -435 -7z m771 -140 l-3 -48 -337 -3 -338 -2 0 50 0 50 341 0 340 0 -3 -47z m-3 -533 l0 -385 -337 -3 -338 -2 0 390 0 390 338 -2 337 -3 0 -385z"/>
<path d="M2130 2710 l0 -50 313 2 312 3 0 45 0 45 -312 3 -313 2 0 -50z"/>
<path d="M2130 2515 l0 -45 315 0 315 0 0 45 0 45 -315 0 -315 0 0 -45z"/>
<path d="M2130 2325 l0 -45 315 0 315 0 0 45 0 45 -315 0 -315 0 0 -45z"/>
<path d="M2520 2130 l0 -50 121 0 120 0 -3 48 -3 47 -117 3 -118 3 0 -51z"/>
<path d="M192 628 l3 -433 1305 0 1305 0 3 433 2 432 -1310 0 -1310 0 2 -432z m2518 2 l0 -340 -1210 0 -1210 0 0 340 0 340 1210 0 1210 0 0 -340z"/>
<path d="M1412 799 c-135 -67 -135 -271 -1 -339 104 -53 234 -2 270 107 53 163 -115 308 -269 232z m158 -104 c35 -36 34 -95 -3 -132 -60 -61 -162 -19 -162 66 0 89 101 130 165 66z"/>
<path d="M340 2130 l0 -50 120 0 120 0 0 50 0 50 -120 0 -120 0 0 -50z"/>
<path d="M340 1940 l0 -50 120 0 120 0 0 50 0 50 -120 0 -120 0 0 -50z"/>
</g>
</svg>
