<!DOCTYPE svg PUBLIC "-//W3C//DTD SVG 20010904//EN" "http://www.w3.org/TR/2001/REC-SVG-20010904/DTD/svg10.dtd">
<svg xmlns="http://www.w3.org/2000/svg" version="1.0" width="300.000000pt" height="232.000000pt" viewBox="0 0 300.000000 232.000000" preserveAspectRatio="xMidYMid meet">
<metadata>
Created by potrace 1.16, written by Peter Selinger 2001-2019
</metadata>
<g transform="translate(0.000000,232.000000) scale(0.100000,-0.100000)" stroke="none">
<path d="M1985 2295 c-236 -51 -445 -215 -556 -438 -62 -123 -82 -209 -83 -362 0 -138 11 -200 58 -317 75 -184 231 -346 418 -432 123 -57 186 -70 343 -70 157 0 220 13 343 70 373 172 562 597 441 991 -85 274 -312 486 -593 553 -96 23 -277 26 -371 5z m319 -160 c235 -50 436 -245 496 -481 79 -308 -73 -625 -365 -759 -97 -45 -164 -59 -275 -58 -180 1 -332 64 -461 193 -124 124 -189 280 -190 455 -1 189 57 331 191 466 68 70 101 94 170 128 140 68 287 87 434 56z"/>
<path d="M1890 1840 c-38 -38 -25 -65 79 -172 l55 -58 -56 0 c-91 0 -128 -27 -114 -84 8 -34 47 -46 151 -46 l95 0 0 -50 0 -50 -115 0 c-102 0 -117 -2 -135 -20 -25 -25 -26 -62 -2 -83 15 -14 41 -17 135 -17 l117 0 0 -78 c0 -98 15 -125 68 -120 48 4 62 32 62 126 l0 72 118 0 c103 0 121 3 135 18 23 25 21 58 -3 82 -18 18 -33 20 -135 20 l-115 0 0 50 0 50 100 0 c94 0 103 2 125 25 31 31 31 49 0 80 -20 21 -34 25 -85 25 l-62 0 67 73 c87 94 94 110 68 145 -40 53 -60 44 -174 -78 l-104 -111 -105 111 c-111 117 -132 128 -170 90z"/>
<path d="M243 1796 c-91 -29 -166 -97 -210 -191 l-28 -60 0 -635 0 -635 22 -48 c49 -106 129 -174 240 -202 53 -14 178 -15 1024 -13 l964 3 57 23 c75 31 150 101 185 177 26 56 28 69 31 219 3 129 1 157 -10 153 -7 -3 -43 -13 -80 -23 l-66 -18 -4 -127 c-3 -125 -4 -128 -34 -166 -16 -21 -50 -48 -74 -60 l-44 -23 -948 0 c-834 0 -953 2 -986 15 -49 21 -81 52 -103 100 -17 36 -19 71 -19 373 l0 332 585 0 c322 0 585 3 585 6 0 3 -11 24 -24 47 -14 23 -41 89 -60 147 l-35 105 -526 3 -527 2 4 113 c3 103 5 117 30 154 16 24 44 49 70 62 43 20 56 21 494 21 l449 0 21 80 20 80 -480 -1 c-366 0 -491 -3 -523 -13z"/>
</g>
</svg>
