<!DOCTYPE svg PUBLIC "-//W3C//DTD SVG 20010904//EN" "http://www.w3.org/TR/2001/REC-SVG-20010904/DTD/svg10.dtd">
<svg xmlns="http://www.w3.org/2000/svg" version="1.0" width="300.000000pt" height="300.000000pt" viewBox="0 0 300.000000 300.000000" preserveAspectRatio="xMidYMid meet">
<metadata>
Created by potrace 1.16, written by Peter Selinger 2001-2019
</metadata>
<g transform="translate(0.000000,300.000000) scale(0.100000,-0.100000)" stroke="none">
<path d="M1452 2660 c-67 -10 -148 -49 -190 -93 l-34 -35 -49 19 c-181 69 -362 -54 -361 -245 0 -81 32 -163 88 -224 24 -28 44 -54 44 -59 0 -5 -13 -16 -29 -26 -55 -32 -186 -145 -261 -223 -220 -231 -322 -468 -321 -749 0 -218 56 -360 196 -500 88 -88 181 -142 290 -170 89 -22 1282 -22 1370 0 111 28 183 72 276 164 145 145 191 265 190 500 0 281 -100 520 -317 760 -53 59 -203 187 -253 217 -17 10 -31 21 -31 24 0 3 23 33 51 65 69 81 92 134 92 215 1 156 -110 270 -262 270 -42 0 -81 -7 -106 -19 l-40 -18 -45 38 c-73 60 -114 77 -225 93 -11 2 -44 0 -73 -4z m-50 -967 l118 -117 113 112 c102 101 118 112 150 112 45 0 82 -40 72 -80 -3 -14 -59 -78 -123 -142 l-117 -118 153 0 c139 0 154 -2 172 -20 26 -26 25 -68 -2 -97 -21 -22 -27 -23 -180 -23 l-158 0 0 -90 0 -90 157 0 c147 0 158 -1 180 -22 29 -27 30 -71 3 -98 -18 -18 -33 -20 -180 -20 l-160 0 0 -150 c0 -147 -1 -152 -25 -175 -29 -30 -54 -31 -88 -4 -26 20 -27 22 -29 172 l-3 152 -163 5 c-147 4 -165 7 -178 24 -20 29 -17 66 8 93 21 22 27 23 180 23 l158 0 0 90 0 90 -157 0 c-147 0 -158 1 -180 22 -29 27 -30 71 -3 98 18 18 33 20 160 20 77 0 140 3 140 7 0 4 -52 60 -117 125 -103 103 -116 120 -115 150 1 39 31 68 70 68 21 0 54 -27 144 -117z"/>
</g>
</svg>
