<!DOCTYPE svg PUBLIC "-//W3C//DTD SVG 20010904//EN" "http://www.w3.org/TR/2001/REC-SVG-20010904/DTD/svg10.dtd">
<svg xmlns="http://www.w3.org/2000/svg" version="1.0" width="300.000000pt" height="300.000000pt" viewBox="0 0 300.000000 300.000000" preserveAspectRatio="xMidYMid meet">
<metadata>
Created by potrace 1.16, written by Peter Selinger 2001-2019
</metadata>
<g transform="translate(0.000000,300.000000) scale(0.100000,-0.100000)" stroke="none">
<path d="M2390 2724 c-102 -18 -200 -36 -219 -39 l-34 -6 68 -69 68 -69 -298 -306 -299 -306 -247 247 c-232 231 -251 248 -284 248 -42 0 -46 -5 -567 -536 -302 -309 -320 -330 -320 -364 0 -50 38 -88 89 -88 36 0 52 15 418 387 l381 386 246 -246 c233 -233 249 -247 284 -247 35 0 53 17 380 345 l343 346 67 -68 c37 -38 69 -67 71 -65 3 3 83 464 83 479 0 11 -30 7 -230 -29z"/>
<path d="M2265 1988 c-56 -44 -55 -21 -55 -863 0 -842 -1 -819 55 -863 26 -21 37 -22 242 -22 240 0 264 5 289 65 21 51 21 1589 0 1640 -25 60 -49 65 -289 65 -205 0 -216 -1 -242 -22z"/>
<path d="M884 1616 l-34 -34 0 -637 0 -637 34 -34 34 -34 215 0 c119 0 227 4 241 10 14 5 35 24 46 42 19 32 20 51 20 653 0 602 -1 621 -20 653 -11 18 -32 37 -46 42 -14 6 -122 10 -241 10 l-215 0 -34 -34z"/>
<path d="M1582 1270 c-61 -38 -62 -45 -62 -511 0 -369 2 -425 16 -455 28 -60 48 -64 283 -64 l211 0 30 28 c19 16 35 43 40 67 14 61 11 821 -3 869 -7 21 -25 48 -40 60 -26 20 -43 21 -235 24 -194 2 -209 1 -240 -18z"/>
<path d="M265 976 c-16 -7 -39 -23 -50 -36 -19 -21 -20 -38 -23 -319 -2 -282 -1 -298 18 -329 11 -18 32 -37 46 -42 14 -6 119 -10 232 -10 299 0 282 -23 282 372 0 304 -2 314 -53 352 -26 19 -43 21 -225 23 -149 2 -204 -1 -227 -11z"/>
</g>
</svg>
