<!DOCTYPE svg PUBLIC "-//W3C//DTD SVG 20010904//EN" "http://www.w3.org/TR/2001/REC-SVG-20010904/DTD/svg10.dtd">
<svg xmlns="http://www.w3.org/2000/svg" version="1.0" width="300.000000pt" height="300.000000pt" viewBox="0 0 300.000000 300.000000" preserveAspectRatio="xMidYMid meet">
<metadata>
Created by potrace 1.16, written by Peter Selinger 2001-2019
</metadata>
<g transform="translate(0.000000,300.000000) scale(0.100000,-0.100000)" stroke="none">
<path d="M522 2989 c-203 -26 -381 -206 -412 -415 -13 -93 -13 -2055 0 -2148 31 -214 208 -388 421 -416 98 -12 1840 -12 1938 0 216 28 393 205 421 421 12 98 12 2040 0 2138 -28 216 -205 393 -421 421 -90 11 -1857 11 -1947 -1z m2006 -219 c70 -35 114 -82 148 -154 l24 -51 0 -1065 0 -1065 -24 -51 c-34 -72 -78 -119 -148 -154 l-61 -30 -967 0 -967 0 -61 30 c-70 35 -114 82 -148 154 l-24 51 0 1065 0 1065 24 51 c34 72 78 119 148 154 l61 30 967 0 967 0 61 -30z"/>
<path d="M859 2391 c-57 -12 -102 -43 -129 -92 -24 -43 -25 -51 -28 -271 l-4 -228 802 0 802 0 -4 228 c-3 221 -4 228 -28 272 -17 29 -41 53 -70 70 l-45 25 -630 2 c-346 0 -646 -2 -666 -6z"/>
<path d="M702 1173 l3 -428 25 -45 c17 -29 41 -53 70 -70 l45 -25 328 -3 327 -3 0 500 0 501 -401 0 -400 0 3 -427z"/>
<path d="M1700 1099 l0 -501 228 4 c221 3 228 4 272 28 29 17 53 41 70 70 l25 45 3 428 3 427 -300 0 -301 0 0 -501z"/>
</g>
</svg>
