<!DOCTYPE svg PUBLIC "-//W3C//DTD SVG 20010904//EN" "http://www.w3.org/TR/2001/REC-SVG-20010904/DTD/svg10.dtd">
<svg xmlns="http://www.w3.org/2000/svg" version="1.0" width="300.000000pt" height="294.000000pt" viewBox="0 0 300.000000 294.000000" preserveAspectRatio="xMidYMid meet">
<metadata>
Created by potrace 1.16, written by Peter Selinger 2001-2019
</metadata>
<g transform="translate(0.000000,294.000000) scale(0.100000,-0.100000)" stroke="none">
<path d="M286 2929 c-59 -14 -153 -68 -188 -108 -17 -19 -45 -65 -62 -101 l-31 -65 -3 -1125 c-1 -619 0 -1136 3 -1150 7 -27 187 -215 298 -311 107 -93 105 -94 306 105 l166 165 172 -164 c100 -96 183 -167 199 -171 40 -10 78 15 188 125 l97 97 -31 67 c-76 169 -110 369 -91 540 10 91 34 202 56 259 7 17 -15 18 -374 18 -368 0 -382 1 -401 20 -14 14 -20 33 -20 68 0 86 -24 82 462 82 l426 0 23 37 c13 20 45 63 71 95 l49 58 -500 0 -500 0 -15 22 c-9 12 -16 41 -16 64 0 34 5 47 27 63 26 21 32 21 629 21 l604 -1 72 35 c102 49 236 85 340 93 l88 6 0 216 0 217 58 27 c85 38 145 96 184 175 30 60 33 75 33 157 0 82 -3 97 -33 157 -40 82 -119 157 -200 190 l-57 23 -995 2 c-580 1 -1011 -3 -1034 -8z m213 -217 c94 -69 96 -209 4 -279 -40 -31 -118 -42 -163 -23 -70 29 -117 120 -100 194 27 121 165 178 259 108z m1771 21 c47 -9 117 -79 125 -125 15 -78 -19 -148 -89 -186 -28 -16 -97 -17 -815 -20 -748 -2 -783 -2 -776 15 27 64 34 95 34 153 0 58 -7 89 -34 153 -7 16 33 17 758 17 420 0 779 -3 797 -7z m-436 -759 c19 -19 22 -124 4 -142 -9 -9 -161 -12 -624 -12 -685 0 -644 -5 -644 71 0 41 14 78 34 91 6 4 282 8 613 8 534 0 603 -2 617 -16z"/>
<path d="M2135 1534 c-11 -3 -44 -12 -72 -20 l-53 -15 0 -46 c0 -111 -112 -176 -217 -127 l-34 17 -36 -34 c-85 -82 -183 -256 -198 -355 -6 -36 -4 -40 24 -52 43 -19 71 -69 71 -127 0 -56 -23 -99 -69 -127 -29 -18 -33 -25 -28 -54 15 -92 92 -234 181 -330 56 -62 59 -64 77 -48 31 28 110 30 157 4 51 -29 86 -89 79 -136 -5 -32 -4 -34 31 -43 144 -38 275 -43 382 -14 l65 18 5 52 c6 61 32 101 81 125 44 23 86 23 134 -2 l38 -20 53 57 c71 77 129 176 164 281 l29 86 -35 21 c-100 60 -99 197 0 256 l35 20 -15 52 c-34 118 -117 259 -197 335 l-35 34 -33 -18 c-47 -24 -108 -22 -152 5 -45 27 -81 98 -72 140 6 28 5 29 -62 46 -66 17 -257 29 -298 19z m262 -464 c197 -97 240 -363 83 -520 -179 -179 -483 -96 -546 150 -70 272 208 494 463 370z"/>
</g>
</svg>
