<!DOCTYPE svg PUBLIC "-//W3C//DTD SVG 20010904//EN" "http://www.w3.org/TR/2001/REC-SVG-20010904/DTD/svg10.dtd">
<svg xmlns="http://www.w3.org/2000/svg" version="1.0" width="300.000000pt" height="300.000000pt" viewBox="0 0 300.000000 300.000000" preserveAspectRatio="xMidYMid meet">
<metadata>
Created by potrace 1.16, written by Peter Selinger 2001-2019
</metadata>
<g transform="translate(0.000000,300.000000) scale(0.100000,-0.100000)" stroke="none">
<path d="M757 2524 c-4 -4 -7 -47 -7 -96 l0 -88 -254 0 -253 0 -27 -26 -26 -27 0 -879 0 -880 29 -29 29 -29 1252 0 1252 0 29 29 29 29 0 880 0 879 -26 27 -27 26 -253 0 -253 0 -3 93 -3 92 -100 0 -100 0 -3 -92 -3 -93 -214 0 -215 0 0 79 c0 115 4 111 -110 111 -114 0 -110 4 -110 -111 l0 -79 -215 0 -214 0 -3 93 -3 92 -95 3 c-53 1 -99 0 -103 -4z m-7 -483 c0 -104 -3 -101 105 -101 108 0 105 -3 105 101 l0 89 215 0 215 0 0 -85 c0 -101 4 -105 110 -105 106 0 110 4 110 105 l0 85 215 0 215 0 0 -89 c0 -104 -3 -101 105 -101 108 0 105 -3 105 101 l0 89 175 0 175 0 0 -725 0 -725 -1100 0 -1100 0 0 725 0 725 175 0 175 0 0 -89z"/>
<path d="M2139 1680 c-9 -5 -83 -102 -164 -215 -81 -113 -150 -207 -154 -209 -3 -2 -42 46 -87 108 l-80 111 -102 3 c-81 2 -103 0 -108 -11 -3 -9 66 -115 168 -256 165 -230 197 -265 227 -247 24 15 502 690 499 705 -3 13 -19 16 -93 18 -50 2 -97 -2 -106 -7z"/>
<path d="M664 1537 c-3 -8 -4 -49 -2 -93 l3 -79 285 0 285 0 0 90 0 90 -283 3 c-230 2 -283 0 -288 -11z"/>
<path d="M664 1137 c-3 -8 -4 -49 -2 -93 l3 -79 285 0 285 0 0 90 0 90 -283 3 c-230 2 -283 0 -288 -11z"/>
</g>
</svg>
