<!DOCTYPE svg PUBLIC "-//W3C//DTD SVG 20010904//EN" "http://www.w3.org/TR/2001/REC-SVG-20010904/DTD/svg10.dtd">
<svg xmlns="http://www.w3.org/2000/svg" version="1.0" width="300.000000pt" height="300.000000pt" viewBox="0 0 300.000000 300.000000" preserveAspectRatio="xMidYMid meet">
<metadata>
Created by potrace 1.16, written by Peter Selinger 2001-2019
</metadata>
<g transform="translate(0.000000,300.000000) scale(0.100000,-0.100000)" stroke="none">
<path d="M324 2796 c-17 -8 -44 -31 -60 -52 l-29 -37 -3 -1033 -2 -1032 96 -91 97 -90 155 149 c162 155 190 172 236 148 14 -7 95 -80 180 -160 l153 -147 54 48 54 48 -37 79 c-52 111 -68 181 -68 299 0 93 6 135 24 193 l7 22 -325 0 c-301 0 -326 1 -335 18 -6 11 -6 24 0 35 9 16 38 17 348 17 l338 0 38 65 c45 76 128 163 204 214 l54 36 -485 3 c-523 2 -524 3 -498 51 11 21 12 21 686 21 674 -1 728 -3 842 -36 l22 -6 0 371 0 371 -845 0 c-633 0 -851 3 -870 12 -27 12 -55 54 -55 82 0 50 51 96 106 96 43 0 107 36 134 77 88 129 -67 294 -216 229z m1406 -821 c6 -8 9 -23 5 -35 -6 -20 -10 -20 -604 -20 -645 0 -638 -1 -611 49 11 21 15 21 604 21 507 0 595 -2 606 -15z"/>
<path d="M720 2808 c0 -2 7 -21 15 -43 8 -22 14 -74 14 -115 0 -41 -6 -93 -14 -115 -8 -22 -15 -41 -15 -42 0 -2 332 -3 738 -3 l739 0 43 23 c48 25 90 89 90 136 0 50 -41 114 -90 139 l-44 22 -738 0 c-406 0 -738 -1 -738 -2z"/>
<path d="M1878 1480 c-139 -25 -255 -86 -354 -184 -39 -40 -87 -101 -108 -138 l-38 -68 -76 0 c-86 0 -105 -8 -100 -39 4 -25 227 -338 247 -346 7 -3 20 0 28 7 25 21 243 326 243 340 0 27 -24 38 -87 38 -39 0 -63 4 -63 11 0 6 30 41 68 78 189 190 475 197 670 18 33 -30 69 -58 81 -62 48 -15 101 31 101 86 0 57 -181 193 -312 234 -89 28 -223 39 -300 25z"/>
<path d="M2482 962 c-29 -25 -242 -320 -242 -335 0 -27 25 -37 93 -37 l68 0 -15 -22 c-40 -57 -125 -131 -187 -162 -181 -91 -394 -62 -540 72 -64 59 -99 75 -132 63 -34 -13 -51 -39 -51 -77 0 -43 48 -95 152 -164 107 -72 208 -103 347 -104 127 -1 215 21 325 81 84 46 205 168 248 251 l33 62 84 0 c73 0 86 3 95 19 8 15 3 29 -25 69 -79 115 -208 288 -220 294 -7 5 -22 0 -33 -10z"/>
</g>
</svg>
