<!DOCTYPE svg PUBLIC "-//W3C//DTD SVG 20010904//EN" "http://www.w3.org/TR/2001/REC-SVG-20010904/DTD/svg10.dtd">
<svg xmlns="http://www.w3.org/2000/svg" version="1.0" width="300.000000pt" height="300.000000pt" viewBox="0 0 300.000000 300.000000" preserveAspectRatio="xMidYMid meet">
<metadata>
Created by potrace 1.16, written by Peter Selinger 2001-2019
</metadata>
<g transform="translate(0.000000,300.000000) scale(0.100000,-0.100000)" stroke="none">
<path d="M1352 2790 c-194 -51 -356 -216 -407 -415 -48 -190 9 -391 154 -536 229 -228 575 -228 801 0 87 88 122 148 150 257 36 141 17 302 -52 423 -41 72 -147 178 -219 219 -121 69 -287 89 -427 52z"/>
<path d="M758 1516 c-165 -45 -243 -202 -343 -701 -21 -108 -79 -445 -101 -587 l-6 -38 487 0 c458 0 486 1 481 18 -2 9 -66 300 -141 647 -75 347 -140 640 -145 653 -9 20 -15 22 -97 21 -49 0 -109 -6 -135 -13z"/>
<path d="M2011 1509 c-6 -13 -71 -307 -146 -654 -75 -347 -139 -638 -141 -647 -5 -17 23 -18 481 -18 l487 0 -6 38 c-108 702 -194 1049 -291 1181 -64 86 -124 113 -266 119 -106 4 -108 4 -118 -19z m359 -684 l0 -35 -170 0 -170 0 0 35 0 35 170 0 170 0 0 -35z"/>
<path d="M1362 1335 c-72 -102 -132 -194 -132 -203 0 -14 178 -806 205 -914 7 -27 10 -28 66 -28 32 0 59 1 59 3 0 1 47 209 105 462 58 252 105 467 105 477 0 16 -253 380 -268 386 -4 1 -67 -81 -140 -183z"/>
</g>
</svg>
