<!DOCTYPE svg PUBLIC "-//W3C//DTD SVG 20010904//EN" "http://www.w3.org/TR/2001/REC-SVG-20010904/DTD/svg10.dtd">
<svg xmlns="http://www.w3.org/2000/svg" version="1.0" width="300.000000pt" height="300.000000pt" viewBox="0 0 300.000000 300.000000" preserveAspectRatio="xMidYMid meet">
<metadata>
Created by potrace 1.16, written by Peter Selinger 2001-2019
</metadata>
<g transform="translate(0.000000,300.000000) scale(0.100000,-0.100000)" stroke="none">
<path d="M851 2982 c-65 -35 -71 -60 -71 -305 0 -184 3 -225 17 -254 32 -68 115 -93 180 -53 59 36 63 54 63 307 0 208 -2 231 -20 260 -36 60 -106 79 -169 45z"/>
<path d="M2023 2980 c-61 -37 -64 -54 -61 -320 l3 -240 32 -31 c41 -41 112 -50 159 -21 58 37 64 65 64 309 0 192 -2 222 -18 252 -35 65 -118 89 -179 51z"/>
<path d="M398 2796 c-87 -24 -152 -85 -184 -173 -11 -31 -13 -251 -14 -1219 0 -1336 -6 -1239 80 -1325 85 -85 0 -80 1246 -77 l1099 3 41 22 c53 28 107 89 128 144 15 40 16 144 14 1244 l-3 1200 -22 41 c-26 49 -89 108 -140 130 -26 12 -77 18 -165 22 l-128 4 0 -136 0 -136 50 0 c28 0 64 -7 80 -15 54 -28 64 -64 68 -227 l4 -148 -1046 0 -1046 0 0 145 c0 154 6 180 50 220 15 14 41 22 84 25 l61 5 0 130 0 130 -105 2 c-61 1 -125 -3 -152 -11z m2142 -1638 c0 -788 0 -804 -20 -836 -40 -65 6 -62 -1027 -62 -912 0 -939 1 -970 20 -73 44 -68 -17 -71 877 l-2 803 1045 0 1045 0 0 -802z"/>
<path d="M1370 1821 c-138 -45 -204 -171 -150 -289 12 -26 33 -50 56 -64 l36 -21 -35 -19 c-50 -25 -86 -76 -99 -139 -14 -73 1 -128 53 -184 57 -62 110 -80 234 -80 89 0 106 3 157 28 126 62 166 212 85 320 -18 23 -47 49 -64 58 l-32 16 37 24 c53 35 74 80 70 155 -5 80 -36 129 -109 169 -45 24 -67 29 -134 32 -44 1 -91 -1 -105 -6z m206 -134 c53 -57 45 -139 -18 -177 -41 -25 -145 -27 -189 -4 -31 15 -59 66 -59 104 0 34 29 79 63 101 26 16 45 19 101 17 64 -4 70 -6 102 -41z m-15 -320 c45 -30 71 -82 65 -130 -9 -80 -66 -119 -171 -119 -101 0 -155 40 -162 119 -9 98 52 153 168 153 52 0 73 -5 100 -23z"/>
<path d="M1815 1051 c-16 -10 -118 -107 -224 -215 l-195 -195 -91 88 c-101 98 -133 113 -184 87 -38 -20 -51 -44 -51 -92 0 -35 10 -48 140 -178 138 -140 140 -141 185 -141 l45 0 251 250 c137 138 257 263 265 278 20 38 10 80 -28 112 -35 30 -72 32 -113 6z"/>
<path d="M1174 2797 c-2 -7 -3 -67 -2 -133 l3 -119 325 0 325 0 0 130 0 130 -323 3 c-260 2 -324 0 -328 -11z"/>
</g>
</svg>
