<!DOCTYPE svg PUBLIC "-//W3C//DTD SVG 20010904//EN" "http://www.w3.org/TR/2001/REC-SVG-20010904/DTD/svg10.dtd">
<svg xmlns="http://www.w3.org/2000/svg" version="1.0" width="300.000000pt" height="300.000000pt" viewBox="0 0 300.000000 300.000000" preserveAspectRatio="xMidYMid meet">
<metadata>
Created by potrace 1.16, written by Peter Selinger 2001-2019
</metadata>
<g transform="translate(0.000000,300.000000) scale(0.100000,-0.100000)" stroke="none">
<path d="M1345 2899 c-176 -21 -400 -94 -545 -179 -235 -137 -454 -372 -565 -606 -95 -200 -139 -393 -139 -614 0 -221 44 -414 139 -614 124 -262 389 -527 651 -651 200 -95 393 -139 614 -139 170 0 287 19 440 70 222 74 379 172 550 344 172 171 270 328 344 550 51 153 70 270 70 440 0 170 -19 287 -70 440 -74 222 -172 378 -344 551 -171 172 -326 268 -554 344 -180 60 -412 86 -591 64z m290 -189 c273 -31 530 -156 725 -350 417 -417 475 -1067 138 -1557 -68 -99 -202 -233 -301 -301 -490 -337 -1140 -279 -1557 138 -475 475 -475 1245 0 1720 263 263 628 391 995 350z"/>
<path d="M911 2324 c-93 -33 -171 -102 -218 -194 -25 -50 -28 -65 -28 -160 0 -94 3 -111 27 -160 51 -103 142 -176 258 -206 209 -53 428 110 447 334 14 166 -86 323 -242 381 -67 25 -179 27 -244 5z m205 -190 c97 -46 131 -176 70 -266 -104 -156 -339 -84 -338 103 1 103 78 179 180 179 30 0 69 -7 88 -16z"/>
<path d="M1430 1565 l-595 -595 68 -67 67 -68 597 597 598 598 -65 65 c-35 36 -67 65 -70 65 -3 0 -273 -268 -600 -595z"/>
<path d="M1883 1395 c-156 -44 -252 -148 -284 -308 -30 -148 63 -322 211 -395 49 -24 66 -27 155 -27 87 0 107 3 157 27 129 60 210 180 217 319 4 96 -16 169 -65 235 -93 126 -254 188 -391 149z m150 -189 c74 -27 117 -91 117 -177 0 -67 -31 -123 -88 -156 -85 -50 -214 -17 -256 65 -53 102 -5 230 99 267 50 18 80 18 128 1z"/>
</g>
</svg>
