<!DOCTYPE svg PUBLIC "-//W3C//DTD SVG 20010904//EN" "http://www.w3.org/TR/2001/REC-SVG-20010904/DTD/svg10.dtd">
<svg xmlns="http://www.w3.org/2000/svg" version="1.0" width="300.000000pt" height="300.000000pt" viewBox="0 0 300.000000 300.000000" preserveAspectRatio="xMidYMid meet">
<metadata>
Created by potrace 1.16, written by Peter Selinger 2001-2019
</metadata>
<g transform="translate(0.000000,300.000000) scale(0.100000,-0.100000)" stroke="none">
<path d="M770 2991 c-82 -17 -132 -66 -146 -139 -9 -48 7 -94 87 -242 38 -72 67 -135 64 -140 -3 -5 -30 -23 -60 -40 -86 -49 -223 -160 -306 -247 -231 -242 -364 -551 -399 -921 -23 -250 34 -492 156 -662 42 -58 109 -110 184 -142 54 -22 62 -23 498 -26 l442 -3 0 70 c0 38 3 76 6 85 6 14 -37 16 -432 16 -422 0 -439 1 -480 21 -57 27 -99 77 -140 163 -51 109 -66 176 -71 333 -10 259 57 525 183 736 112 185 282 349 480 462 l79 45 370 0 370 0 79 -45 c252 -143 453 -364 555 -609 33 -79 81 -238 81 -267 0 -12 9 -21 28 -25 15 -3 55 -14 89 -23 l62 -18 -6 31 c-12 71 -53 226 -79 296 -87 243 -264 479 -486 646 -55 41 -116 83 -138 94 -21 11 -41 24 -45 29 -3 6 29 74 72 153 71 132 77 148 78 203 0 72 -25 114 -88 148 -42 22 -45 22 -547 24 -278 0 -521 -2 -540 -6z m1020 -167 c0 -3 -37 -75 -82 -160 l-83 -154 -340 0 -340 0 -82 155 c-46 85 -83 157 -83 160 0 3 227 5 505 5 278 0 505 -3 505 -6z"/>
<path d="M974 2020 c-26 -10 -54 -48 -54 -71 0 -8 41 -87 91 -175 50 -87 94 -165 96 -171 4 -10 -25 -13 -126 -13 -118 0 -133 -2 -151 -20 -30 -30 -27 -83 6 -109 25 -19 40 -21 200 -21 l174 0 0 -85 0 -85 -178 0 c-174 0 -179 -1 -200 -23 -31 -33 -29 -80 4 -106 25 -19 40 -21 200 -21 l174 0 0 -135 c0 -131 1 -137 25 -160 31 -32 69 -32 100 0 24 23 25 29 25 160 l0 135 175 0 c173 0 176 0 200 25 14 13 25 36 25 50 0 14 -11 37 -25 50 -24 25 -27 25 -200 25 l-175 0 0 85 0 85 174 0 c160 0 175 2 200 21 33 26 36 79 6 109 -18 18 -33 20 -150 20 -71 0 -130 2 -130 4 0 3 43 79 95 169 52 91 95 175 95 187 0 33 -16 56 -49 69 -53 23 -73 2 -193 -205 -60 -104 -113 -193 -117 -197 -5 -5 -57 75 -116 178 -59 102 -115 194 -124 204 -20 24 -50 32 -77 21z"/>
<path d="M1880 899 c-133 -97 -160 -118 -160 -129 0 -11 282 -213 299 -214 13 -1 17 13 19 77 l3 77 454 0 c442 0 456 1 475 20 28 28 25 64 -6 89 -26 21 -37 21 -475 21 l-449 0 0 75 c0 65 -2 75 -18 75 -9 0 -73 -41 -142 -91z"/>
<path d="M2676 504 c-3 -9 -6 -42 -6 -75 l0 -58 -456 -3 c-438 -3 -456 -4 -470 -22 -19 -27 -18 -70 4 -89 17 -15 64 -17 470 -17 l452 0 0 -61 c0 -65 14 -104 34 -96 19 7 280 198 288 211 4 5 5 13 2 17 -10 17 -283 209 -297 209 -8 0 -18 -7 -21 -16z"/>
</g>
</svg>
