<!DOCTYPE svg PUBLIC "-//W3C//DTD SVG 20010904//EN" "http://www.w3.org/TR/2001/REC-SVG-20010904/DTD/svg10.dtd">
<svg xmlns="http://www.w3.org/2000/svg" version="1.0" width="300.000000pt" height="300.000000pt" viewBox="0 0 300.000000 300.000000" preserveAspectRatio="xMidYMid meet">
<metadata>
Created by potrace 1.16, written by Peter Selinger 2001-2019
</metadata>
<g transform="translate(0.000000,300.000000) scale(0.100000,-0.100000)" stroke="none">
<path d="M370 2874 c-116 -32 -215 -115 -271 -229 l-34 -70 0 -1075 0 -1075 33 -68 c37 -76 105 -151 172 -190 101 -59 66 -57 1230 -57 925 0 1074 2 1125 15 163 43 284 171 315 335 13 70 13 1369 0 1439 -13 72 -54 151 -111 215 -43 47 -49 60 -49 98 0 189 -94 348 -249 422 l-66 31 -527 3 -526 3 -39 50 c-44 57 -115 109 -193 142 -53 21 -68 22 -405 24 -285 2 -360 0 -405 -13z m756 -213 c66 -30 97 -78 149 -234 26 -78 61 -163 77 -189 41 -66 109 -125 186 -161 l67 -32 485 -5 c334 -3 493 -9 511 -17 42 -19 89 -63 112 -107 l22 -41 0 -695 c0 -693 0 -695 -22 -735 -11 -22 -34 -52 -50 -67 -64 -61 -2 -58 -1163 -58 -1161 0 -1099 -3 -1163 58 -16 15 -39 45 -50 67 l-22 40 0 1015 0 1015 22 40 c11 22 34 52 50 67 58 56 70 57 423 57 295 1 329 -1 366 -18z m1297 -207 c74 -25 147 -119 147 -192 0 -10 -94 -12 -474 -10 l-474 3 -44 30 c-41 28 -84 97 -103 163 l-6 22 454 0 c386 0 460 -2 500 -16z"/>
<path d="M557 2324 c-46 -46 -44 -108 4 -153 21 -19 34 -21 170 -21 144 0 148 1 178 26 27 22 31 32 31 74 0 42 -4 52 -31 74 -30 25 -34 26 -178 26 -146 0 -149 0 -174 -26z"/>
<path d="M1116 1698 c4 -7 52 -70 106 -139 54 -70 98 -130 98 -133 0 -3 -54 -6 -120 -6 l-120 0 0 -85 0 -85 166 0 165 0 -3 -47 -3 -48 -162 -3 -163 -2 0 -85 0 -85 165 0 165 0 0 -135 0 -135 80 0 80 0 0 135 0 135 165 0 165 0 0 85 0 85 -165 0 -165 0 0 50 0 50 165 0 165 0 0 85 0 84 -125 3 -125 3 95 143 95 142 -92 0 -93 0 -84 -146 -83 -145 -83 143 -83 143 -107 3 c-85 2 -105 0 -99 -10z"/>
</g>
</svg>
