<!DOCTYPE svg PUBLIC "-//W3C//DTD SVG 20010904//EN" "http://www.w3.org/TR/2001/REC-SVG-20010904/DTD/svg10.dtd">
<svg xmlns="http://www.w3.org/2000/svg" version="1.0" width="300.000000pt" height="250.000000pt" viewBox="0 0 300.000000 250.000000" preserveAspectRatio="xMidYMid meet">
<metadata>
Created by potrace 1.16, written by Peter Selinger 2001-2019
</metadata>
<g transform="translate(0.000000,250.000000) scale(0.100000,-0.100000)" stroke="none">
<path d="M175 2394 c-45 -23 -66 -45 -86 -89 -17 -38 -19 -81 -19 -715 0 -422 4 -689 10 -711 12 -43 66 -99 112 -115 24 -9 176 -13 556 -13 454 -1 527 1 553 14 55 29 62 106 12 145 -25 19 -40 20 -524 20 -486 0 -500 1 -519 20 -20 20 -20 33 -20 633 0 582 1 615 18 630 17 16 94 17 905 17 l886 0 15 -22 c14 -19 16 -63 16 -281 l0 -259 29 -29 c16 -16 39 -29 51 -29 37 0 77 28 89 61 15 43 15 550 0 604 -16 57 -46 95 -93 116 -39 18 -86 19 -1001 19 -851 0 -963 -2 -990 -16z"/>
<path d="M1589 1972 l-34 -30 0 -332 0 -332 28 -24 c38 -32 90 -32 122 1 l25 24 0 330 c0 328 0 330 -22 355 -13 15 -37 29 -54 32 -26 5 -38 0 -65 -24z"/>
<path d="M1109 1791 l-29 -29 0 -232 c0 -234 3 -260 39 -287 9 -7 32 -13 53 -13 29 0 42 7 63 31 l26 32 -3 239 -3 240 -28 24 c-39 33 -81 31 -118 -5z"/>
<path d="M643 1625 c-32 -22 -43 -75 -43 -198 0 -153 22 -197 100 -197 19 0 40 9 55 25 24 24 25 28 25 180 0 152 -1 156 -25 180 -28 29 -79 33 -112 10z"/>
<path d="M2145 1504 c-167 -33 -291 -101 -332 -184 -21 -40 -23 -59 -23 -187 l0 -143 60 0 60 0 0 54 0 55 73 -33 c124 -57 192 -70 372 -71 182 0 269 16 380 70 l65 31 0 -142 c0 -141 0 -141 -27 -169 -61 -61 -177 -99 -337 -111 l-87 -7 3 -56 3 -56 65 3 c115 5 241 42 373 110 4 2 7 -50 7 -116 0 -106 -2 -122 -21 -146 -48 -62 -181 -109 -343 -122 l-86 -7 0 -58 0 -59 48 0 c68 0 213 25 288 50 93 31 183 95 211 149 23 44 23 45 23 480 0 433 0 437 -22 481 -43 85 -165 152 -338 184 -101 20 -317 20 -415 0z m430 -123 c104 -21 187 -59 212 -97 15 -24 15 -29 2 -52 -19 -34 -105 -77 -199 -99 -105 -25 -365 -25 -470 0 -94 22 -180 65 -199 99 -13 23 -13 28 2 52 25 37 107 76 207 97 118 25 325 25 445 0z"/>
<path d="M1725 915 c-120 -26 -187 -66 -216 -129 -17 -37 -19 -69 -19 -300 0 -241 1 -263 20 -302 47 -96 220 -154 423 -141 164 11 284 64 321 141 15 32 17 68 14 315 l-3 278 -27 36 c-73 94 -322 144 -513 102z m276 -115 c73 -14 143 -50 147 -75 3 -25 -48 -56 -123 -74 -155 -38 -415 9 -415 75 0 57 240 102 391 74z m-121 -274 c120 1 169 10 263 49 15 6 17 1 17 -38 0 -54 -13 -70 -90 -106 -51 -24 -66 -26 -190 -26 -120 0 -141 3 -185 23 -74 34 -85 48 -85 103 l0 47 73 -26 c63 -23 87 -26 197 -26z m-180 -219 c44 -17 79 -21 180 -21 123 0 153 5 253 49 15 6 17 1 17 -43 0 -45 -4 -53 -29 -72 -104 -73 -331 -79 -456 -12 -50 27 -50 28 -53 81 -3 48 -1 53 15 46 10 -5 43 -17 73 -28z"/>
</g>
</svg>
