<!DOCTYPE svg PUBLIC "-//W3C//DTD SVG 20010904//EN" "http://www.w3.org/TR/2001/REC-SVG-20010904/DTD/svg10.dtd">
<svg xmlns="http://www.w3.org/2000/svg" version="1.0" width="300.000000pt" height="300.000000pt" viewBox="0 0 300.000000 300.000000" preserveAspectRatio="xMidYMid meet">
<metadata>
Created by potrace 1.16, written by Peter Selinger 2001-2019
</metadata>
<g transform="translate(0.000000,300.000000) scale(0.100000,-0.100000)" stroke="none">
<path d="M305 2519 c-40 -12 -58 -27 -84 -69 -21 -35 -21 -35 -21 -949 0 -908 0 -913 21 -951 11 -20 35 -45 52 -56 30 -18 62 -19 650 -22 679 -3 652 -5 608 57 -43 60 -93 181 -110 268 l-18 88 -354 5 c-258 4 -360 8 -376 18 -54 30 -53 21 -53 500 l0 444 34 34 34 34 716 0 c769 0 759 1 786 -49 5 -11 10 -50 10 -88 0 -37 4 -75 10 -83 5 -8 40 -20 80 -26 86 -15 163 -44 249 -96 36 -21 71 -36 78 -34 11 5 13 80 11 445 -3 429 -4 440 -24 468 -12 15 -36 37 -55 48 -33 20 -54 20 -1124 22 -649 1 -1102 -2 -1120 -8z m1359 -419 c18 -6 26 -17 26 -33 0 -46 -8 -47 -287 -47 l-263 0 -12 26 c-11 23 -10 29 11 45 21 17 43 19 261 19 131 0 250 -4 264 -10z"/>
<path d="M908 1659 c-21 -12 -24 -49 -6 -67 9 -9 119 -12 433 -12 l420 0 72 32 c40 18 72 39 73 46 0 16 -965 17 -992 1z"/>
<path d="M1992 1580 c-252 -66 -435 -261 -488 -520 -42 -209 26 -421 185 -581 200 -200 484 -252 736 -135 283 132 435 435 370 740 -39 184 -177 361 -346 444 -146 72 -309 91 -457 52z m223 -315 c23 -23 25 -31 25 -130 l0 -105 105 0 c99 0 107 -2 130 -25 17 -16 25 -35 25 -60 0 -25 -8 -44 -25 -60 -22 -23 -31 -25 -129 -25 l-104 0 -4 -111 c-3 -107 -4 -112 -31 -135 -47 -40 -104 -29 -132 26 -10 20 -15 59 -15 124 l0 95 -78 -6 c-89 -7 -143 6 -167 40 -24 34 -19 75 14 108 29 28 32 29 135 29 l106 0 0 105 c0 99 2 107 25 130 16 17 35 25 60 25 25 0 44 -8 60 -25z"/>
<path d="M902 1438 c-18 -18 -14 -56 7 -68 12 -6 132 -10 319 -10 l300 0 26 31 c51 61 59 59 -307 59 -246 0 -336 -3 -345 -12z"/>
<path d="M902 1218 c-19 -19 -14 -45 10 -62 19 -13 61 -16 263 -16 132 0 245 4 250 8 13 9 34 69 27 76 -3 3 -125 6 -272 6 -193 0 -269 -3 -278 -12z"/>
</g>
</svg>
