<!DOCTYPE svg PUBLIC "-//W3C//DTD SVG 20010904//EN" "http://www.w3.org/TR/2001/REC-SVG-20010904/DTD/svg10.dtd">
<svg xmlns="http://www.w3.org/2000/svg" version="1.0" width="300.000000pt" height="300.000000pt" viewBox="0 0 300.000000 300.000000" preserveAspectRatio="xMidYMid meet">
<metadata>
Created by potrace 1.16, written by Peter Selinger 2001-2019
</metadata>
<g transform="translate(0.000000,300.000000) scale(0.100000,-0.100000)" stroke="none">
<path d="M341 2974 c-82 -22 -147 -62 -210 -130 -62 -66 -95 -123 -117 -207 -21 -81 -21 -2197 1 -2280 40 -155 143 -268 294 -325 63 -25 77 -26 332 -30 169 -2 294 0 340 7 180 28 327 152 380 322 17 53 19 94 19 335 l0 274 -105 0 -105 0 0 -248 c0 -270 -6 -314 -54 -377 -15 -19 -48 -47 -74 -62 l-47 -28 -300 0 c-275 0 -303 2 -338 19 -51 25 -96 71 -118 121 -18 38 -19 96 -19 1134 0 1086 0 1095 21 1137 23 49 76 99 128 123 31 14 79 16 316 16 311 0 331 -3 397 -63 80 -73 83 -83 86 -384 l3 -268 105 0 105 0 -3 293 -3 292 -33 69 c-43 92 -92 150 -166 198 -112 72 -148 78 -485 77 -225 0 -309 -4 -350 -15z"/>
<path d="M1941 2974 c-82 -22 -147 -62 -210 -130 -117 -124 -131 -181 -131 -521 l0 -263 110 0 110 0 0 267 c0 249 1 269 21 309 23 49 76 99 128 123 31 14 79 16 316 16 212 0 289 -3 319 -14 49 -17 111 -73 139 -125 l22 -41 3 -1065 c2 -756 0 -1080 -8 -1117 -14 -66 -57 -124 -117 -160 l-48 -28 -284 -3 c-308 -3 -336 0 -405 53 -19 15 -46 50 -61 78 -25 51 -25 52 -25 319 l0 268 -110 0 -110 0 0 -263 c0 -278 6 -331 51 -420 51 -101 144 -182 258 -225 63 -25 77 -26 332 -30 169 -2 294 0 340 7 138 22 254 97 330 213 74 115 70 50 67 1303 l-3 1120 -33 69 c-43 92 -92 150 -166 198 -112 72 -148 78 -485 77 -225 0 -309 -4 -350 -15z"/>
<path d="M515 1721 c-45 -11 -74 -32 -98 -71 -21 -33 -22 -47 -22 -230 0 -187 1 -197 23 -233 46 -73 42 -72 457 -72 341 0 372 1 400 18 40 25 65 60 72 102 l6 35 -397 0 -396 0 0 155 0 155 396 0 397 0 -7 32 c-9 46 -60 94 -112 107 -48 12 -669 14 -719 2z"/>
<path d="M1737 1716 c-21 -8 -48 -22 -59 -33 -20 -17 -48 -72 -48 -93 0 -7 130 -10 395 -10 l395 0 0 -155 0 -155 -395 0 c-431 0 -407 3 -384 -57 16 -43 56 -80 102 -92 29 -9 147 -11 387 -9 324 3 347 4 379 23 19 11 43 33 55 48 20 27 21 41 21 237 0 196 -1 210 -21 237 -12 15 -36 37 -55 48 -32 19 -54 20 -384 22 -278 2 -358 0 -388 -11z"/>
<path d="M1160 1430 l0 -70 335 0 335 0 0 70 0 70 -335 0 -335 0 0 -70z"/>
</g>
</svg>
