<!DOCTYPE svg PUBLIC "-//W3C//DTD SVG 20010904//EN" "http://www.w3.org/TR/2001/REC-SVG-20010904/DTD/svg10.dtd">
<svg xmlns="http://www.w3.org/2000/svg" version="1.0" width="300.000000pt" height="300.000000pt" viewBox="0 0 300.000000 300.000000" preserveAspectRatio="xMidYMid meet">
<metadata>
Created by potrace 1.16, written by Peter Selinger 2001-2019
</metadata>
<g transform="translate(0.000000,300.000000) scale(0.100000,-0.100000)" stroke="none">
<path d="M605 2836 c-122 -30 -211 -112 -245 -225 -20 -65 -20 -88 -18 -1126 l3 -1060 29 -63 c36 -77 104 -142 184 -174 56 -22 63 -23 551 -26 l495 -3 -74 68 -73 68 -416 5 -416 5 -42 24 c-24 14 -55 43 -70 65 l-28 41 -3 1061 -2 1060 23 45 c16 29 40 54 72 74 l48 30 554 3 553 3 0 -281 0 -280 290 0 290 0 0 -355 c0 -195 4 -355 8 -355 5 0 34 -16 66 -35 32 -19 60 -35 62 -35 2 0 4 204 4 452 l0 453 -288 287 -287 288 -610 -1 c-449 0 -623 -4 -660 -13z m1625 -538 c0 -5 -81 -8 -180 -8 l-180 0 0 187 0 188 180 -180 c99 -99 180 -183 180 -187z"/>
<path d="M1028 2469 c-26 -14 -22 -42 13 -104 l31 -55 -26 0 c-14 0 -35 -9 -46 -20 -18 -18 -20 -33 -20 -128 0 -124 11 -152 62 -152 l30 0 -7 -47 c-11 -80 -42 -131 -100 -169 -56 -35 -65 -47 -57 -77 8 -30 51 -33 100 -7 84 45 135 129 149 247 5 43 9 53 24 53 18 0 19 -10 19 -133 0 -120 2 -136 20 -152 41 -37 161 -28 187 14 7 11 17 49 23 86 12 75 3 105 -33 105 -33 0 -47 -19 -47 -61 0 -53 -9 -69 -36 -69 -24 0 -24 1 -24 105 l0 105 39 0 c61 0 71 22 71 152 0 95 -2 110 -20 128 -11 11 -29 20 -41 20 -19 0 -19 1 4 33 13 17 30 47 37 66 13 32 12 35 -10 53 -13 10 -28 17 -34 15 -17 -5 -106 -141 -101 -154 3 -9 -10 -13 -46 -13 -33 0 -48 4 -44 11 14 21 -6 77 -41 117 -37 44 -48 48 -76 31z m272 -309 l0 -60 -110 0 -110 0 0 60 0 60 110 0 110 0 0 -60z"/>
<path d="M795 2448 c-97 -11 -115 -19 -115 -52 0 -32 19 -46 62 -46 37 0 38 -1 38 -34 0 -34 -1 -35 -46 -38 -53 -3 -70 -21 -60 -61 6 -24 11 -27 51 -27 25 0 45 -3 45 -6 0 -8 -66 -142 -94 -192 -27 -46 -25 -66 6 -83 26 -14 59 8 81 53 16 32 17 30 17 -108 0 -147 5 -164 45 -164 41 0 45 17 45 174 l0 149 24 -22 c34 -32 70 -25 74 14 2 24 -8 46 -48 97 -27 37 -50 72 -50 78 0 5 13 10 29 10 27 0 61 21 61 38 0 23 -34 52 -61 52 -27 0 -29 2 -29 40 0 37 2 40 40 50 46 12 66 40 50 70 -12 22 -22 23 -165 8z"/>
<path d="M650 1345 l0 -65 413 0 c411 0 414 0 433 22 10 11 45 41 78 65 l58 43 -491 0 -491 0 0 -65z"/>
<path d="M1948 1399 c-144 -19 -273 -85 -376 -194 -124 -130 -176 -263 -176 -445 1 -141 29 -239 102 -351 123 -189 347 -301 571 -286 271 18 490 185 575 438 54 161 42 326 -36 488 -54 114 -168 230 -278 283 -119 59 -257 83 -382 67z m331 -409 l212 -245 -171 -3 -170 -2 0 -245 0 -245 -115 0 -115 0 0 245 0 245 -170 2 -170 3 227 263 c216 251 227 262 244 245 9 -10 112 -128 228 -263z"/>
<path d="M654 1026 c-3 -7 -4 -38 -2 -67 l3 -54 316 -3 316 -2 11 47 c6 27 14 58 18 71 l6 22 -331 0 c-271 0 -333 -2 -337 -14z"/>
<path d="M660 590 l0 -70 325 0 c254 0 325 3 325 13 -1 6 -7 37 -14 67 l-13 55 -311 3 -312 2 0 -70z"/>
</g>
</svg>
