<!DOCTYPE svg PUBLIC "-//W3C//DTD SVG 20010904//EN" "http://www.w3.org/TR/2001/REC-SVG-20010904/DTD/svg10.dtd">
<svg xmlns="http://www.w3.org/2000/svg" version="1.0" width="300.000000pt" height="300.000000pt" viewBox="0 0 300.000000 300.000000" preserveAspectRatio="xMidYMid meet">
<metadata>
Created by potrace 1.16, written by Peter Selinger 2001-2019
</metadata>
<g transform="translate(0.000000,300.000000) scale(0.100000,-0.100000)" stroke="none">
<path d="M965 2975 c-24 -23 -25 -30 -25 -139 l0 -115 -327 -3 -328 -3 -58 -27 c-80 -38 -158 -115 -193 -191 l-29 -62 0 -1075 0 -1075 28 -60 c37 -79 114 -156 191 -192 l61 -28 1215 0 1215 0 61 28 c77 36 154 113 191 192 l28 60 0 1075 0 1075 -29 62 c-35 76 -113 153 -193 191 l-58 27 -327 3 -328 3 0 115 c0 109 -1 116 -25 139 -33 34 -93 34 -131 1 -27 -22 -28 -28 -32 -140 l-5 -116 -368 0 -369 0 0 88 c0 147 -24 192 -103 192 -27 0 -45 -7 -62 -25z m-25 -560 c0 -110 1 -117 25 -140 17 -18 35 -25 62 -25 79 0 103 45 103 193 l0 87 369 0 368 0 5 -116 c4 -112 5 -118 32 -140 38 -33 98 -33 131 1 24 23 25 30 25 140 l0 115 302 0 c287 0 304 -1 346 -21 26 -13 54 -38 70 -62 26 -39 27 -45 30 -214 l3 -173 -1310 0 -1311 0 0 163 c0 136 3 168 19 203 18 40 56 75 102 93 13 5 160 10 327 10 l302 1 0 -115z m1870 -1312 c0 -724 -1 -770 -19 -808 -22 -48 -44 -69 -94 -90 -32 -13 -175 -15 -1197 -15 -1022 0 -1165 2 -1197 15 -50 21 -72 42 -94 90 -18 38 -19 84 -19 808 l0 767 1310 0 1310 0 0 -767z"/>
<path d="M1029 1548 c22 -40 99 -179 170 -308 l131 -235 -115 -3 -115 -3 0 -54 0 -55 150 0 150 0 0 -75 0 -75 -150 0 -150 0 0 -55 0 -55 150 0 150 0 0 -135 0 -135 100 0 100 0 0 135 0 135 150 0 150 0 0 55 0 55 -145 0 -145 0 0 75 0 75 150 0 150 0 0 55 0 54 -118 3 -119 3 165 295 c90 162 166 301 169 308 4 9 -22 12 -110 12 l-115 0 -138 -265 c-76 -146 -140 -265 -144 -265 -4 0 -68 119 -144 265 l-138 265 -114 0 -115 0 40 -72z"/>
</g>
</svg>
