<!DOCTYPE svg PUBLIC "-//W3C//DTD SVG 20010904//EN" "http://www.w3.org/TR/2001/REC-SVG-20010904/DTD/svg10.dtd">
<svg xmlns="http://www.w3.org/2000/svg" version="1.0" width="300.000000pt" height="300.000000pt" viewBox="0 0 300.000000 300.000000" preserveAspectRatio="xMidYMid meet">
<metadata>
Created by potrace 1.16, written by Peter Selinger 2001-2019
</metadata>
<g transform="translate(0.000000,300.000000) scale(0.100000,-0.100000)" stroke="none">
<path d="M765 2989 c-145 -21 -309 -94 -436 -196 -130 -103 -252 -293 -301 -468 -23 -80 -23 -82 -23 -825 0 -743 0 -745 23 -825 88 -313 334 -559 647 -647 80 -23 82 -23 825 -23 743 0 745 0 825 23 313 88 559 334 647 647 23 80 23 82 23 825 0 743 0 745 -23 825 -88 313 -335 560 -647 647 -79 22 -89 22 -790 24 -390 1 -737 -2 -770 -7z m900 -883 c92 -25 218 -91 280 -148 152 -139 237 -345 220 -533 l-6 -70 -112 0 c-102 0 -117 -2 -168 -28 -87 -42 -143 -98 -184 -180 -44 -89 -53 -165 -32 -257 9 -36 14 -66 13 -68 -2 -1 -55 -5 -117 -9 -150 -8 -250 12 -379 74 -221 107 -370 340 -370 579 0 257 143 484 375 596 44 21 110 45 145 53 80 18 249 13 335 -9z m420 -896 c15 0 42 9 60 20 32 20 33 20 77 1 50 -21 58 -34 58 -91 0 -30 6 -44 31 -64 17 -14 37 -26 44 -26 20 0 35 -32 35 -75 0 -30 -5 -39 -32 -53 -59 -32 -78 -57 -78 -106 0 -36 -5 -48 -27 -65 -38 -31 -68 -35 -113 -17 -58 23 -94 20 -126 -9 -32 -30 -35 -30 -84 -5 -48 24 -52 32 -55 86 -2 51 -25 81 -69 92 -30 8 -31 11 -34 65 -3 54 -2 58 25 69 58 25 73 47 73 108 0 63 11 79 70 104 32 13 37 13 76 -10 22 -13 53 -24 69 -24z"/>
<path d="M1232 1744 c-12 -8 -22 -24 -22 -34 0 -11 29 -52 65 -92 l65 -73 -73 -5 -72 -5 0 -35 0 -35 110 -5 110 -5 3 -52 3 -53 -101 0 c-111 0 -140 -9 -140 -43 0 -47 13 -52 130 -55 l110 -4 0 -62 c0 -67 11 -86 47 -86 30 0 43 28 43 93 l0 55 115 4 c123 3 135 8 135 55 0 34 -29 43 -139 43 l-101 0 0 50 0 50 104 0 c114 0 130 7 124 57 -3 28 -4 28 -80 31 -43 2 -78 6 -78 9 0 3 27 34 60 69 41 42 60 70 60 87 0 27 -23 57 -43 57 -7 0 -55 -45 -108 -100 l-96 -100 -98 100 c-54 55 -101 100 -104 100 -4 0 -17 -7 -29 -16z"/>
<path d="M2021 1044 c-52 -43 -39 -113 26 -140 97 -41 181 74 102 140 -19 17 -43 26 -64 26 -21 0 -45 -9 -64 -26z"/>
</g>
</svg>
