<!DOCTYPE svg PUBLIC "-//W3C//DTD SVG 20010904//EN" "http://www.w3.org/TR/2001/REC-SVG-20010904/DTD/svg10.dtd">
<svg xmlns="http://www.w3.org/2000/svg" version="1.0" width="300.000000pt" height="300.000000pt" viewBox="0 0 300.000000 300.000000" preserveAspectRatio="xMidYMid meet">
<metadata>
Created by potrace 1.16, written by Peter Selinger 2001-2019
</metadata>
<g transform="translate(0.000000,300.000000) scale(0.100000,-0.100000)" stroke="none">
<path d="M263 2796 c-103 -33 -185 -106 -232 -205 l-26 -56 0 -1035 0 -1035 33 -67 c40 -81 110 -148 190 -180 54 -21 73 -23 341 -26 205 -2 291 0 313 9 72 30 91 113 39 171 l-29 33 -289 5 c-278 5 -289 6 -319 27 -68 49 -65 -14 -62 1077 3 978 3 985 24 1013 11 15 36 36 55 45 32 17 110 18 1199 18 1089 0 1167 -1 1199 -18 19 -9 44 -30 55 -45 20 -27 21 -45 26 -326 6 -334 7 -340 79 -362 32 -9 44 -9 75 6 66 32 68 39 64 384 l-3 306 -32 66 c-39 79 -102 140 -181 177 l-57 27 -1210 2 c-981 1 -1218 -1 -1252 -11z"/>
<path d="M548 2164 c-31 -16 -58 -61 -58 -96 0 -33 36 -87 66 -98 14 -6 155 -10 327 -10 282 0 304 1 334 20 46 28 62 84 37 135 -29 63 -44 65 -381 65 -244 -1 -303 -3 -325 -16z"/>
<path d="M1940 2165 c-179 -40 -339 -165 -417 -325 -51 -105 -66 -171 -66 -280 1 -158 59 -302 168 -419 34 -36 55 -66 48 -68 -34 -12 -144 -92 -201 -147 -157 -149 -250 -346 -268 -565 -8 -89 7 -131 56 -156 80 -42 160 16 160 117 0 76 28 181 71 268 33 67 60 102 123 165 87 86 156 128 271 166 105 35 269 33 382 -5 254 -83 422 -302 448 -584 6 -56 13 -80 32 -102 31 -37 80 -47 125 -26 49 24 60 48 59 133 -4 274 -160 543 -403 697 l-76 48 39 35 c56 51 127 163 157 246 33 95 41 242 18 340 -40 168 -165 330 -316 407 -117 60 -288 83 -410 55z m273 -235 c81 -31 175 -119 213 -202 26 -56 29 -74 29 -163 0 -91 -3 -106 -31 -165 -39 -83 -110 -154 -194 -194 -59 -28 -74 -31 -160 -31 -86 0 -101 3 -162 32 -124 58 -202 159 -229 295 -21 106 19 239 99 329 43 48 133 102 198 119 58 14 171 5 237 -20z"/>
<path d="M553 1600 c-28 -11 -63 -66 -63 -98 0 -36 27 -80 61 -97 25 -14 72 -15 310 -13 l281 3 29 33 c23 25 29 42 29 75 -1 45 -11 63 -50 90 -22 15 -56 17 -300 16 -151 0 -285 -4 -297 -9z"/>
<path d="M531 1014 c-39 -33 -50 -83 -27 -131 27 -56 57 -63 282 -63 221 0 251 7 278 65 20 41 20 58 1 95 -30 58 -39 60 -281 60 l-222 0 -31 -26z"/>
</g>
</svg>
