<!DOCTYPE svg PUBLIC "-//W3C//DTD SVG 20010904//EN" "http://www.w3.org/TR/2001/REC-SVG-20010904/DTD/svg10.dtd">
<svg xmlns="http://www.w3.org/2000/svg" version="1.0" width="300.000000pt" height="300.000000pt" viewBox="0 0 300.000000 300.000000" preserveAspectRatio="xMidYMid meet">
<metadata>
Created by potrace 1.16, written by Peter Selinger 2001-2019
</metadata>
<g transform="translate(0.000000,300.000000) scale(0.100000,-0.100000)" stroke="none">
<path d="M1634 2725 c-32 -16 -96 -72 -184 -160 l-135 -135 415 0 415 0 -140 140 c-79 79 -158 149 -181 160 -57 28 -128 26 -190 -5z"/>
<path d="M355 2199 c-61 -15 -111 -55 -140 -112 l-25 -51 0 -810 c0 -768 1 -813 19 -851 10 -22 31 -52 47 -67 66 -61 -5 -58 1246 -58 1091 0 1145 1 1183 19 22 10 52 31 67 47 55 59 58 80 58 369 l0 265 -330 0 c-199 0 -349 4 -380 11 -72 15 -139 64 -177 128 -67 112 -51 234 43 328 80 81 94 83 501 83 l343 0 0 268 c0 267 0 268 -25 319 -30 59 -79 97 -145 112 -58 14 -2228 13 -2285 0z"/>
<path d="M2084 1341 c-56 -34 -79 -113 -49 -171 66 -128 255 -83 255 62 0 98 -119 162 -206 109z"/>
</g>
</svg>
