<svg width="130" height="130" viewBox="0 0 130 130" fill="none" xmlns="http://www.w3.org/2000/svg">
<path fill-rule="evenodd" clip-rule="evenodd" d="M65.0027 0C29.1092 0 0 29.1011 0 65.0027C0 91.6121 16.0062 114.484 38.916 124.535C38.7318 120.001 38.8835 114.544 40.04 109.606C41.2912 104.33 46.3287 74.4792 46.3287 74.4792C46.3287 74.4792 46.3287 70.0402 46.3287 63.9031C46.3287 54.2723 52.6337 59.0931 59.5833 59.0931L69.0625 62.2917C86.6667 62.2917 115.104 62.2917 115.104 62.2917C115.104 62.2917 89.2206 41.9792 71.7708 41.9792C52.0569 41.9792 50.1042 41.9792 50.1042 41.9792C50.1042 47.6504 36.5625 48.75 36.5625 48.75L31.1458 41.9792L24.375 39.2708C24.375 20.8108 36.6167 21.8535 67.4971 21.8535C92.3162 21.8535 130 39.2708 115.104 62.2917C115.104 62.2917 89.9681 62.2917 69.0625 62.2917C62.0533 62.2917 76.7433 84.2021 74.4792 79.8958C74.4792 79.8958 75.8333 89.375 59.5833 100.208C58.2075 105.219 49.0507 123.432 46.5834 127.332C52.4307 129.06 58.6084 130 65.0027 130C100.899 130 130 100.899 130 65.0027C130 29.1011 100.899 0 65.0027 0Z" fill="#498765"/>
</svg>
